<?xml version="1.0" encoding="utf-8"?>
<!-- Generator: Adobe Illustrator 22.0.1, SVG Export Plug-In . SVG Version: 6.00 Build 0)  -->
<svg version="1.1" xmlns="http://www.w3.org/2000/svg" xmlns:xlink="http://www.w3.org/1999/xlink" x="0px" y="0px"
	 viewBox="0 0 269.9 42.8" style="enable-background:new 0 0 269.9 42.8;" xml:space="preserve">
<style type="text/css">
	.st0{fill:#FFFFFF;}
	.st1{fill:url(#SVGID_1_);}
	.st2{display:none;}
	.st3{display:inline;}
	.st4{fill:#0C8AE8;}
</style>
<g id="Capa_3">
</g>
<g id="Capa_1">
	<g>
		<path class="st0" d="M269.9,0c0,14.3,0,28.5,0,42.8H0V0c7.9,12.4,33.5,20.7,69.5,25.3c60.3,7.6,112.6,2.2,136.3-1
			C252.5,18,268.4,5,269.9,0z"/>
		<g id="Capa_2_1_">
			<g id="Capa_1-2">
				
					<linearGradient id="SVGID_1_" gradientUnits="userSpaceOnUse" x1="-2.27" y1="15.74" x2="272.19" y2="15.74" gradientTransform="matrix(1 0 0 -1 0 30)">
					<stop  offset="0.25" style="stop-color:#003B80"/>
					<stop  offset="0.36" style="stop-color:#003676"/>
					<stop  offset="0.55" style="stop-color:#00295A"/>
					<stop  offset="0.79" style="stop-color:#00152D"/>
					<stop  offset="1" style="stop-color:#000000"/>
				</linearGradient>
				<path class="st1" d="M134.9,20.9C73.3,20.9,20.7,12.2,0,0c6.9,16,64.7,28.5,134.9,28.5S263,16,269.9,0
					C249.1,12.2,196.6,20.9,134.9,20.9z"/>
			</g>
		</g>
	</g>
</g>
<g id="Capa_2" class="st2">
	<g id="Capa_2_2_" class="st3">
		<g id="Capa_1-2_1_">
			<path class="st4" d="M134.9,20.9C73.3,20.9,20.7,12.2,0,0c6.9,16,64.7,28.5,134.9,28.5S263,16,269.9,0
				C249.1,12.2,196.6,20.9,134.9,20.9z"/>
		</g>
	</g>
</g>
</svg>
