<svg xmlns="http://www.w3.org/2000/svg" viewBox="0 0 81.15 81.15"><defs><style>.cls-1{fill:#fff;}.cls-2{fill:#202854;}</style></defs><g id="Capa_2" data-name="Capa 2"><g id="_informacion" data-name="+informacion"><circle class="cls-1" cx="40.58" cy="40.58" r="38.33"/><path class="cls-2" d="M40.58,81.15A40.58,40.58,0,1,1,81.15,40.58,40.62,40.62,0,0,1,40.58,81.15Zm0-76.66A36.09,36.09,0,1,0,76.66,40.58,36.13,36.13,0,0,0,40.58,4.49Z"/><path class="cls-2" d="M38.92,29.16l-15.2,7.61a.92.92,0,1,0,.81,1.63l1.67-.84c.1.16.19.31.28.44l2,3A15.63,15.63,0,0,1,38.85,34l-.62-1.91a4.83,4.83,0,0,0-.17-.49l1.68-.84a.92.92,0,1,0-.82-1.62Z"/><path class="cls-2" d="M21.54,28.44l6-3h0l6-3L33,21.24l1.6-.8A1,1,0,0,0,35,19.05l-.66-1.33a1.06,1.06,0,0,0-1.4-.47l-2,1a13.43,13.43,0,0,0-6.23,1.65,13.3,13.3,0,0,0-5.05,4l-2,1a1,1,0,0,0-.47,1.39L18,27.59a1,1,0,0,0,1.39.46l1.59-.79Z"/><path class="cls-2" d="M24.21,33.78l12-6-.77-1.55,1.6-.81a.91.91,0,1,0-.81-1.62L21,31.4A.91.91,0,1,0,21.84,33l1.59-.79Z"/><path class="cls-2" d="M60.09,36.77,44.88,29.16a.91.91,0,1,0-.81,1.62l1.67.84-.17.49-.64,2A15.68,15.68,0,0,1,55,41.35L57.33,38l.28-.44,1.66.84a.92.92,0,1,0,.82-1.63Z"/><path class="cls-2" d="M66.05,24.87l-2-1a13.38,13.38,0,0,0-5.05-4,13.47,13.47,0,0,0-6.24-1.65l-2-1a1,1,0,0,0-1.39.47l-.67,1.33a1,1,0,0,0,.47,1.39l1.6.8-.59,1.19,6,3h0l6,3,.59-1.18,1.59.79a1,1,0,0,0,1.39-.46l.67-1.33A1,1,0,0,0,66.05,24.87Z"/><path class="cls-2" d="M62.78,31.4,47.57,23.79a.91.91,0,1,0-.81,1.62l1.6.81-.78,1.55,12,6,.77-1.55L62,33a.92.92,0,1,0,.82-1.62Z"/><path class="cls-2" d="M41.64,36.18A13.19,13.19,0,0,0,29.35,44.6H17.93a1,1,0,0,0-1,1v14.5a1,1,0,0,0,1,1H31.64a17.69,17.69,0,0,1-3-9.7h0a13.19,13.19,0,1,0,13-15.3Zm0,19.34a6.15,6.15,0,1,1,6.15-6.15A6.14,6.14,0,0,1,41.64,55.52Z"/><circle class="cls-2" cx="41.64" cy="49.37" r="3.04"/></g></g></svg>