<svg xmlns="http://www.w3.org/2000/svg" xmlns:xlink="http://www.w3.org/1999/xlink" viewBox="0 0 81.74 81.74"><defs><style>.cls-1{fill:none;}.cls-2{fill:#fff;}.cls-3{fill:#202854;}.cls-4{clip-path:url(#clip-path);}</style><clipPath id="clip-path"><circle class="cls-1" cx="40.87" cy="40.87" r="33.17"/></clipPath></defs><g id="Capa_2" data-name="Capa 2"><g id="_informacion" data-name="+informacion"><circle class="cls-2" cx="40.87" cy="40.87" r="38.61"/><path class="cls-3" d="M40.87,81.74A40.87,40.87,0,1,1,81.74,40.87,40.92,40.92,0,0,1,40.87,81.74Zm0-77.22A36.35,36.35,0,1,0,77.22,40.87,36.4,36.4,0,0,0,40.87,4.52Z"/><g class="cls-4"><path class="cls-3" d="M50.77,21.55c-1.24,1.67-3.6,4.21-6.57,4.21h-.11c-.51,0-1.06,0-1.65,0a25.51,25.51,0,0,0-3.86.28l-.53-1.61a26.93,26.93,0,0,1,4.39-.33l1.69,0h.07c3.32,0,6-4.76,6-4.76a25.33,25.33,0,0,0-8.82-1.82h-.57A25.42,25.42,0,0,0,36,18L30.06,0,28,.67h0L26,1.35h0L23.9,2l5.92,18.06a25.49,25.49,0,0,0-9.17,7.49c.62.49,1.27.95,1.94,1.38a5.61,5.61,0,0,0,3,.87,5.54,5.54,0,0,0,3.62-1.34A17.47,17.47,0,0,1,32,26.57l.53,1.61a16.25,16.25,0,0,0-2.2,1.57,7.2,7.2,0,0,1-8.58.6c-.2-.12-.36-.24-.54-.36A23.35,23.35,0,0,0,17.28,42.4,23.59,23.59,0,1,0,50.77,21.55ZM47.43,43.48a1.12,1.12,0,0,1,1.56.36l1.51,2.4a1.14,1.14,0,0,1-1.93,1.2L47.07,45A1.13,1.13,0,0,1,47.43,43.48Zm-.49,4.87-.2,2.82A1.13,1.13,0,1,1,44.48,51l.19-2.83a1.14,1.14,0,0,1,2.27.16Zm2.84-6.21-2.63-1.06A1.13,1.13,0,0,1,48,39L50.63,40a1.14,1.14,0,0,1,.63,1.48A1.13,1.13,0,0,1,49.78,42.14Zm-2.13-5-2.75.69a1.13,1.13,0,1,1-.55-2.2l2.75-.69a1.13,1.13,0,0,1,1.37.83A1.12,1.12,0,0,1,47.65,37.14ZM46,43a5.13,5.13,0,1,1-5-5.25A5.14,5.14,0,0,1,46,43Zm-3.38,7.75L40.8,53a1.14,1.14,0,1,1-1.74-1.46l1.82-2.17a1.14,1.14,0,0,1,1.74,1.46Zm-5-15.95-.2,2.83a1.13,1.13,0,0,1-2.26-.16l.2-2.83a1.13,1.13,0,1,1,2.26.16Zm-2.59,6A1.13,1.13,0,1,1,33.06,42l-1.51-2.4a1.15,1.15,0,0,1,.36-1.57,1.13,1.13,0,0,1,1.56.36Zm-2.72,2.89,2.63,1.06A1.14,1.14,0,1,1,34,46.88l-2.63-1.06a1.14,1.14,0,0,1,.85-2.11Zm2.14,5L37.15,48a1.14,1.14,0,0,1,.55,2.21L35,50.91a1.13,1.13,0,0,1-1.38-.82A1.14,1.14,0,0,1,34.4,48.71ZM43,34.35l-1.82,2.18a1.14,1.14,0,1,1-1.74-1.46l1.83-2.17A1.13,1.13,0,1,1,43,34.35ZM40.52,58.86a15.93,15.93,0,0,1-7.71-29.67L34,32.82a12.31,12.31,0,1,0,7.29-2.21,11.75,11.75,0,0,0-1.19,0l-1.16-3.52A15.69,15.69,0,0,1,41.22,27a15.94,15.94,0,0,1-.7,31.87Z"/><path class="cls-3" d="M38.32,42.87a2.55,2.55,0,1,0,2.6-2.49A2.55,2.55,0,0,0,38.32,42.87Z"/></g></g></g></svg>