<svg xmlns="http://www.w3.org/2000/svg" viewBox="0 0 79.79 79.79"><defs><style>.cls-1{fill:#fff;}.cls-2{fill:#202854;}.cls-3{fill:none;stroke:#202854;stroke-linecap:round;stroke-linejoin:round;stroke-width:0.35px;}</style></defs><g id="Capa_2" data-name="Capa 2"><g id="_informacion" data-name="+informacion"><circle class="cls-1" cx="39.89" cy="39.89" r="37.69"/><path class="cls-2" d="M39.89,79.79a39.9,39.9,0,1,1,39.9-39.9A39.94,39.94,0,0,1,39.89,79.79Zm0-75.38A35.48,35.48,0,1,0,75.37,39.89,35.52,35.52,0,0,0,39.89,4.41Z"/><path class="cls-2" d="M61.05,35.67c.92-.47,1.45-.75,1-.88A9.07,9.07,0,0,0,54.68,36l-.78-1.17.5-1.21,3.75-.93a.67.67,0,0,0,.48-.44h0a.53.53,0,0,0,0-.25c0-.28-.05-.55-.08-.82l0-.14a6.91,6.91,0,0,0-.16-.79h0c-.06-.21-.12-.42-.19-.63h0l0-.09c-.05-.14-.1-.28-.16-.42L58,29h0L58,29l-.05-.11q-.13-.32-.3-.63l-.07-.11c-.09-.17-.19-.35-.3-.52a.75.75,0,0,1-.07-.12c-.13-.19-.26-.39-.4-.58l-.07-.08c-.12-.17-.24-.33-.37-.49l-.11-.13-.46-.54,0-.05-.45-.49L55.13,25l-.52-.52-3.72.29h0l-.51,0a.49.49,0,0,0-.3.85l3.22,3L50,27.39l-.53-.14V27H47.15v.2a6.36,6.36,0,0,0-3.85,2.12l-3,4H37a1.84,1.84,0,0,1-1.45-.72l-.54-1a1.34,1.34,0,0,0-.78-.68l-.77-.23h0A34,34,0,0,0,25,29.37a2,2,0,0,0-1.67.83h0l0,.06-1,1.47h0l-.28.43c5.56.61,8.36,1.85,12,9H31.36a8.38,8.38,0,1,0,0,4.77H34l-.21,1h9.25a8.76,8.76,0,0,0,8.1-5.44L53,37l.76,1.13a8,8,0,1,0,7.29-2.47ZM26.23,41.2a3.76,3.76,0,1,0,0,4.77h2a5.44,5.44,0,1,1,0-4.77ZM51.8,36.1l-2,5a8.66,8.66,0,0,1-8.07,5.44H36.89a.55.55,0,0,1-.55-.54h5.4a8.15,8.15,0,0,0,7.56-5.11l2-5s-10.76,2-13.69,5.31h-.69c2.61-3.6,12.94-5.6,14.28-5.85h.1a.53.53,0,0,1,.42.2A.52.52,0,0,1,51.8,36.1Zm7.86,13.56a6.07,6.07,0,0,1-4.77-9.83l1.39,2.08a3.74,3.74,0,0,0-.4,1.67,3.77,3.77,0,1,0,1.76-3.19l-1.07-1.6a1.62,1.62,0,0,0,.44-.35,5.5,5.5,0,0,1,.54-.54,5.94,5.94,0,0,1,2.11-.39,6.08,6.08,0,0,1,0,12.15Z"/><line class="cls-3" x1="67.7" y1="53.94" x2="13.93" y2="53.94"/><line class="cls-3" x1="12.35" y1="52.61" x2="12.35" y2="24.45"/></g></g></svg>