<svg xmlns="http://www.w3.org/2000/svg" viewBox="0 0 344.44 70.26"><defs><style>.cls-1{fill:#fff;}</style></defs><g id="Capa_2" data-name="Capa 2"><g id="Capa_1-2" data-name="Capa 1"><path class="cls-1" d="M36.05,0c-4,0-18,.33-30.07,7.46l-.06,0A12.7,12.7,0,0,0,.08,19.63c0,.28,3.52,27.74,28.77,48A11.59,11.59,0,0,0,36,70.26a11.59,11.59,0,0,0,7.19-2.67C68.45,47.4,72,19.91,72,19.62A12.7,12.7,0,0,0,66.16,7.49l-.06,0C54,.34,40,0,36.05,0m0,4.79c3.65,0,16.58.3,27.6,6.77a7.88,7.88,0,0,1,3.61,7.5c0,.26-3.47,25.94-27,44.8A6.86,6.86,0,0,1,36,65.48a6.91,6.91,0,0,1-4.2-1.62,74.8,74.8,0,0,1-10.25-10l12.9-3c7.35-1.74,8.13-10.53,8.13-10.53l-8.09,1.91c-1.26,2.39-3.17,5-6.9,5.85l-9,2.13a77,77,0,0,1-5.13-7.79l21.71-5.14a.68.68,0,0,1,.74.9l-.39,1.38L42.35,38a10.49,10.49,0,0,0,7.14-6.2,16.13,16.13,0,0,0,1.37-4.82l-14.79,3.5a9.82,9.82,0,0,1-5.66,3.69l-19,4.49a76.67,76.67,0,0,1-3.73-8.7l30.7-7.25a.57.57,0,0,1,.65.7,17.87,17.87,0,0,1-1.33,4.27l12.65-3A11.25,11.25,0,0,0,58,18a17.28,17.28,0,0,0,1.45-5.15L6.28,25.46a49.39,49.39,0,0,1-1.45-6.37,7.92,7.92,0,0,1,3.61-7.53c11-6.47,24-6.82,27.6-6.77"/><path class="cls-1" d="M80.78,55.83h-8.7l27.07-41.6a2.92,2.92,0,0,1,2.45-1.33h9.94L85.26,53.4a5.37,5.37,0,0,1-4.48,2.43"/><path class="cls-1" d="M113.71,55.83H102l22.72-34.49h-13l4.4-7.15a2.74,2.74,0,0,1,2.32-1.29h37.09l-4.23,6.86a3.36,3.36,0,0,1-2.85,1.58h-12Z"/><path class="cls-1" d="M168.16,55.83h-11l2.38-8.65H144l-7.85,7.52a4.06,4.06,0,0,1-2.8,1.13H121.53l44.78-42.18a2.81,2.81,0,0,1,1.9-.75h11.46ZM161,41.35l4.38-15.64L150.07,41.27Z"/><path class="cls-1" d="M318.65,55.83h-11.4l2.38-8.65H294.5L286.3,55a2.9,2.9,0,0,1-2,.8H272l44.07-41.51a5.26,5.26,0,0,1,3.59-1.42h10.48ZM311,41.35l4.45-15.69L300.56,41.27Z"/><path class="cls-1" d="M210.94,47.19l-4.38,7.24a2.89,2.89,0,0,1-2.48,1.4H172.62L200.48,12.9h11.79L189.68,47.18Z"/><path class="cls-1" d="M220.35,55.83h-10l27.14-41.72a2.66,2.66,0,0,1,2.24-1.21h10.08l-27,41.64a2.85,2.85,0,0,1-2.38,1.29"/><path class="cls-1" d="M271.18,55.83h-9.54a2.84,2.84,0,0,1-2.81-2.41L256,34.82l-14.27,21H230l27.12-41.68a2.74,2.74,0,0,1,2.3-1.25h10.17L256.87,33.37,283.72,12.9h13.72L267.86,35.41Z"/><path class="cls-1" d="M337.3,41.55a7.32,7.32,0,0,1,3.53.92,6.7,6.7,0,0,1,2.65,2.63,7.2,7.2,0,0,1,0,7.15,6.83,6.83,0,0,1-2.64,2.64,7.32,7.32,0,0,1-3.56.94,7.22,7.22,0,0,1-3.55-.94,6.86,6.86,0,0,1-2.65-2.64,7.17,7.17,0,0,1,0-7.15,6.7,6.7,0,0,1,2.65-2.63,7.28,7.28,0,0,1,3.52-.92m0,1.41a5.72,5.72,0,0,0-2.82.74,5.27,5.27,0,0,0-2.13,2.11,5.75,5.75,0,0,0-.78,2.88,5.87,5.87,0,0,0,.76,2.87,5.49,5.49,0,0,0,2.13,2.12,5.72,5.72,0,0,0,5.7,0,5.47,5.47,0,0,0,2.12-2.12,5.78,5.78,0,0,0,0-5.75,5.3,5.3,0,0,0-2.14-2.11,5.75,5.75,0,0,0-2.83-.74m-3.23,9.55V44.94h1.55c1.43,0,2.25,0,2.42,0a2.85,2.85,0,0,1,1.18.3A1.87,1.87,0,0,1,340,46a2.19,2.19,0,0,1,.27,1.08,2.06,2.06,0,0,1-.53,1.41,2.53,2.53,0,0,1-1.51.72,1.54,1.54,0,0,1,.53.28,3.27,3.27,0,0,1,.52.58l.56.93.89,1.52h-1.9l-.64-1.23a5.31,5.31,0,0,0-1.06-1.56A1.68,1.68,0,0,0,336,49.4h-.4v3.11Zm1.55-4.29h.61a7.32,7.32,0,0,0,1.66-.11,1,1,0,0,0,.51-.36,1,1,0,0,0,.18-.58.9.9,0,0,0-.18-.57,1,1,0,0,0-.51-.36,8.55,8.55,0,0,0-1.66-.1h-.61Z"/></g></g></svg>