<svg xmlns="http://www.w3.org/2000/svg" viewBox="0 0 389.72 72.8"><defs><style>.cls-1{fill:#00205c;}</style></defs><g id="Capa_2" data-name="Capa 2"><g id="Capa_1-2" data-name="Capa 1"><path class="cls-1" d="M36.07,18.8l-1.45-1.33a4.13,4.13,0,0,1-1.16,1.19A2.72,2.72,0,0,1,34,20.9l1.27-1.39c-.12.71-.07,1.22-.25,1.41a8.5,8.5,0,0,1-1.33,1c.51.82,1.13,1.71,1.82,2.62l.41-.67-.8-1.13c.48-.18,1-.56,1.18-.41l.38.28c.18-.29.35-.58.55-.89L35.4,22c.44-.53.85-1.24,1.28-1.74C36.23,20.23,36,19.9,36.07,18.8ZM12,32.07v0a.08.08,0,0,0,0,0Zm28.93-9.23a5.54,5.54,0,0,1,.34-2.6,24.14,24.14,0,0,1-1.59-3.8c-.33-1.69-.63-3.93-.9-6.13l-1.55-.82A2.43,2.43,0,0,0,36,12.33a1.62,1.62,0,0,1-.36.73l.12.11c-.45.76-.83,1.41-1.32,2.22a2.2,2.2,0,0,1,1-.12c0-.28.08-.53.19-.57a26.31,26.31,0,0,1,3.14-.81c.07,0,.31.38.27.47a1.39,1.39,0,0,1-.49.66c-.68.44-1.39.82-2.13,1.24-.1-.05-.43-.17-.89-.35l-.54.67,3.78,3.31a2.85,2.85,0,0,0-.62.1,2.7,2.7,0,0,1,.38.49l-1,2.79c.67.52,1.33,1.06,2,1.59A1.73,1.73,0,0,0,37.65,26l7.29-.08a34.46,34.46,0,0,1-3.07-4.57C41.56,21.86,41.24,22.34,40.92,22.84ZM37,17c1.06-3,1.72-.33,2.61-.75C38.55,20.6,37.94,17,37,17Zm5,7.2a4.3,4.3,0,0,1,.68,1c-.5,0-.86.16-1.08,0A8.31,8.31,0,0,1,40.25,24a1.71,1.71,0,0,1,.31-.58A7.49,7.49,0,0,1,42,24.2ZM14,28.86,12.79,33.2C14.39,32,14.84,30.47,14,28.86ZM29.29,23.1c0-.16,0-.32,0-.48l3-.48a31.05,31.05,0,0,1-1.93-3.83c-.51,1.05-1,2.13-1.59,3.31,0,.13.06.26.09.37.13.51.12,1.07.2,1.61,0,.13.14.24.27.43l.22-.75ZM12.79,33.2l0,0v0ZM171.72,18.1c0-.05,0-.13,0-.17h-.06Zm-152,11.21c0-.14,0-.28,0-.4a3.18,3.18,0,0,1-.33.09v0C19.5,29.12,19.58,29.21,19.69,29.31Zm10-12.75c-.17-.88-.33-1.9-.49-3a14.56,14.56,0,0,1-1.51,3.62,3.22,3.22,0,0,1-.85.68l-.13.28a3.76,3.76,0,0,1,.13.48c-.1,0-.24.11-.26.07l-.08-.1c-.1.2-.19.41-.29.61l1-.07a2.52,2.52,0,0,1,.15-.33,4,4,0,0,1,.93-.82c0,.36,0,.72,0,1.08l.31,0c.45-.55.92-1.13,1.4-1.7C29.82,16.91,29.74,16.61,29.72,16.56Zm-18,16.52.61.4a3.74,3.74,0,0,1,.31.27,3.47,3.47,0,0,1,.15-.51L12,32.11c-.11.31-.23.63-.34,1Zm3.79.11c-.28,0-.58-.21-.82-.06l-.16.12c.24.39.45,1,.72,1.38.39-.91.74-1.71,1.17-2.7C16.08,32.29,15.78,32.81,15.48,33.19Zm5.46-5.53h-.47a4,4,0,0,1,.84,3l.16.15a12.73,12.73,0,0,1,2.42-3.24l-1.76,0c-.15.42-.57.51-1.22.26C20.92,27.81,20.93,27.73,20.94,27.66Zm7.32-14.54a4.42,4.42,0,0,1,.66-1.82c-.09-.73-.17-1.45-.26-2.16a5.29,5.29,0,0,1-1.36-.69,8.79,8.79,0,0,1-.48,1.84,15.48,15.48,0,0,1-1.51,2.3l0,.06c2.09-2.48,2.14-2.48,3-1.73L25.4,12.73l.09.14-.3.34-.33-.16a5.58,5.58,0,0,0-.75.34c.7,1.1,1.45,2.09,2,3.17.28-1.33.56-2.66.85-4ZM11.53,31l.12.11a.77.77,0,0,1,.27.59.78.78,0,0,1-.1.39H12c0-.61-.06-1.14-.11-1.62C11.78,30.63,11.65,30.81,11.53,31ZM29.31,63.61c0-.73.05-1.17.07-1.79l1,.27c.08-.74.17-1.45.26-2.07A11.33,11.33,0,0,1,31,58.85a2,2,0,0,0-1.35-.51A23.65,23.65,0,0,1,24.73,57a4.79,4.79,0,0,0-1.63.2c-.16.34-.29.65-.41.95.36.1.66.11.83,0,1.18-1.11,1.65-.29,2.41.41L25,59l.94.87-.23.33L22.34,59c-.31.86-.46,1.41-.46,1.43s0,.21,0,.3a4.16,4.16,0,0,0,1.21.17c1.19,0,2.38-.27,3.55-.22a2.71,2.71,0,0,1,1.58.86c.17.17-.17.72-.33,1.28Zm171.89,6.7c-.13,0-.18-.55-.14-.41l-1,0c0,.36,0,.7-.05,1h0a.19.19,0,0,1,0,.08l2.66,0A2,2,0,0,0,201.2,70.31Zm70.56-18.47c-1.64,0-3.28,0-4.91,0-.21,0-.41-.51-.62-.79a4.38,4.38,0,0,1,1.08-.27c1.19,0,2.38.08,3.56.17a9.48,9.48,0,0,1,1.28.21,34.13,34.13,0,0,1,2.23-3.45l-8.26.1a28.94,28.94,0,0,0-5.36,10c-.51,3.44-.87,9.52-1,12.53l4,0c.06-1.17.15-2.86.28-4.67l-2.12-.88.1-.58,2.09.43c0-.52.07-1,.11-1.55a.65.65,0,0,1,.68-.64.71.71,0,0,1,.56.71.28.28,0,0,1,0,.09l-.12,1.67h.05c.18.05.28.56.42.86a4.2,4.2,0,0,1-.55.29c-.11,1.64-.2,3.15-.25,4.25l3.49,0c.15-3,.52-9.22,1.06-12.88A25.8,25.8,0,0,1,271.76,51.84ZM275.36,63v.08c-.22,2.66-.37,5.37-.46,7.08l3.49,0c.16-3,.52-9.21,1.07-12.87a28.84,28.84,0,0,1,4.87-9.68l-8.26.09a29,29,0,0,0-5.36,10c-.51,3.44-.87,9.52-1,12.52l4,0c.09-1.71.25-4.51.47-7.24a.63.63,0,0,1,.67-.64A.71.71,0,0,1,275.36,63ZM254.47,47.91l-8.25.1a29.09,29.09,0,0,0-5.37,10c-.51,3.44-.87,9.52-1,12.52l4,0c.09-1.72.25-4.51.47-7.25a.63.63,0,0,1,.67-.64.7.7,0,0,1,.56.71v.09c-.21,2.65-.37,5.36-.46,7.07l1.73,0-.28-.29.68-.46.74.74h.63c.15-3,.51-9.21,1.06-12.87A29.31,29.31,0,0,1,254.47,47.91Zm30.84,15V63c-.21,2.66-.37,5.36-.46,7.08l3.5,0c.15-3,.51-9.22,1.06-12.88a29.08,29.08,0,0,1,4.87-9.67l-8.25.09a29,29,0,0,0-5.37,10c-.51,3.44-.87,9.51-1,12.52l4,0c.09-1.72.25-4.51.47-7.24a.64.64,0,0,1,.67-.65A.7.7,0,0,1,285.31,62.88ZM1.06,33l-.4.52a1.71,1.71,0,0,1,.81,0l0,0C1.36,33.33,1.22,33.16,1.06,33ZM255.45,63.23v.08c-.21,2.66-.37,5.37-.46,7.08l3.5,0c.15-3,.52-9.22,1.06-12.87a29.13,29.13,0,0,1,4.88-9.68l-8.26.09a29.3,29.3,0,0,0-5.37,10c-.51,3.44-.87,9.52-1,12.52l4,0c.09-1.71.25-4.51.47-7.24a.64.64,0,0,1,.67-.65A.69.69,0,0,1,255.45,63.23Zm2.86-8c.34,1.14.58,1.93.81,2.71-.2.07-.41.12-.61.18C258.14,57.32,256.91,56.69,258.31,55.21ZM218.56,65.69l.42.08c.06-.82.12-1.66.19-2.5l-.65,1.46c-1-.35-1.81-.63-2.63-1-.09,0-.17-.08-.26-.12v0c-.22,2.65-.37,5.36-.46,7.07h0a.17.17,0,0,0,0,.07l3.5,0c.06-1.17.15-2.83.27-4.63C218.82,66,218.68,65.87,218.56,65.69Zm95.63-18.46-8.26.09a29,29,0,0,0-5.36,10c-.51,3.44-.87,9.52-1,12.52l4,0c.09-1.71.25-4.51.47-7.24a.63.63,0,0,1,.67-.64.69.69,0,0,1,.56.71v.08c-.22,2.66-.37,5.37-.46,7.08l3.49,0c.15-3,.52-9.22,1.06-12.87A29.13,29.13,0,0,1,314.19,47.23Zm-103.51,14,0-.06v0Zm84.58,1.59a.27.27,0,0,1,0,.09c-.21,2.65-.37,5.36-.46,7.07l3.5,0c.08-1.64.23-4.24.44-6.86a5.18,5.18,0,0,1-.58-.47c-.7-.63-1.34-1.32-2.1-1.89a13.76,13.76,0,0,0-2.18-1c2.7-.12,4.12.75,5,2.16.15-1.75.32-3.44.52-4.78a29.31,29.31,0,0,1,4.87-9.68l-1.33,0,.07.11-1.24,1.25c-.64-.64-1-1-1-1.34l-4.76.06a29.31,29.31,0,0,0-5.37,10c-.5,3.44-.87,9.52-1,12.52l3.33,0v0c-.06,0,.06,0,.3,0h.35c.08-1.72.24-4.51.46-7.25a.64.64,0,0,1,.67-.64A.69.69,0,0,1,295.26,62.77Zm-59.71.69v.08c-.22,2.65-.37,5.36-.46,7.07l3.49,0c.13-2.54.42-7.42.84-11.08a1.13,1.13,0,0,1-.66,0c-.47-.2-.64-.93-.94-1.43l.59-.36,1.16.57c0-.19.05-.4.08-.58A21.45,21.45,0,0,1,241,54c-1.28.53-1.84.15-2.58-1.25l2.92.51A33.37,33.37,0,0,1,244.52,48l-8.26.09a28.94,28.94,0,0,0-5.36,10c0,.3-.09.64-.13,1l.42,0a3.9,3.9,0,0,1,.9.47c-.31.23-.49.38-.93.7a13.79,13.79,0,0,1,2.12-.08,2.94,2.94,0,0,1,1.18.63c.08.06-.06.54-.16.55a4.71,4.71,0,0,1-1.4.06,8.59,8.59,0,0,1-2-.41l-.3-.14c-.08.9-.17,1.85-.24,2.81v-.22c-.21,2.65-.36,5.35-.45,7h0s0,.05,0,.08l4-.05c.09-1.71.25-4.51.46-7.25a.66.66,0,0,1,.68-.64A.71.71,0,0,1,235.55,63.46Zm-1.33-6.28,1.58.28.69-1.53c.27,1.16.45,1.9.63,2.66C234.5,58.68,234.5,58.68,234.22,57.18ZM201.74,69.24a3.52,3.52,0,0,1,2,1.73H204c0-.23,0-.51,0-.77l-1.54-1.4Zm162.9-3.1.19-.11-.15-.5C364.67,65.74,364.66,65.94,364.64,66.14Zm4.68.91c0,.23,0,.44,0,.65l.33-.47C369.52,67.17,369.42,67.1,369.32,67.05Zm2.13-10.78A7.91,7.91,0,0,0,370.4,56c-.1.31-.16.53-.16.54h0l.91.38v0C371.24,56.71,371.34,56.49,371.45,56.27Zm-.31.68v0h0Zm0,0c-.37,0-.41,1.77-1,.54,0,.29-.07.59-.11.9l.09-.08.54.88A13,13,0,0,0,371.14,57Zm-1.25,2.55c0,.24-.05.49-.07.73a1.33,1.33,0,0,0,.54-.49Zm-9.61-2.85c-.51,3.45-.87,9.52-1,12.53l2.14,0a1.84,1.84,0,0,0,.17-.22l.13.22,1.53,0c.06-1.07.14-2.58.25-4.22-1.27-.29-2.47.14-3.53,2.45.23-2.89,1.58-4.32,3.66-4.27l.09-1.2a.64.64,0,0,1,.67-.65.59.59,0,0,1,.29.18s0-.08,0-.11a18.5,18.5,0,0,1,.88-3.07c.16-.42.58-.57.83-.94a1.36,1.36,0,0,0,.13-.27c-.29.13-.58.25-.88.36l-.44-.26c.28-.35.5-.83.77-1.16l-.2.23c.28-3.28.53-6,.73-8.72l0-.18a.79.79,0,0,1-.31-.69h-.32a1.85,1.85,0,0,1,0,.23c-.23,3-.63,5.93-1,8.9l-.17.07c-.24-1.73-.47-3.46-.71-5.23l-.84.22q.19-.64.39-1.26a31.07,31.07,0,0,0-1.71,3,3.67,3.67,0,0,1-.09.84,5,5,0,0,1-.64,1.13c0-.07-.05-.13-.07-.2A21.16,21.16,0,0,0,360.28,56.67Zm2.47-4.29.63.18c.17,2.21.35,4.42.52,6.68l-2.13-.08C362.12,56.77,362.44,54.58,362.75,52.38ZM205.31,69.23a2.78,2.78,0,0,0,1.5.17l-1.41-1.69C205.36,68.25,205.34,68.75,205.31,69.23Zm162-2.18c.19.52.41,1,.71,1.76,0-.71.09-1.54.14-2.49l-.06,0c0-.07-.18-.59-.33-1.07.17-.41.37-.8.55-1.2.13-1.91.3-3.93.49-5.71C367.37,60.25,366.45,64.82,367.27,67.05Zm-1.19-11.2a1.12,1.12,0,0,1,.35-.23c.67-.22,1.26-.39,1.79-.51.14-.36.25-.75.37-1.12l-.48.07.42-1ZM219.92,70.79l4-.05c0-.51.06-1.13.1-1.81a7.36,7.36,0,0,1-3.9-1.59c-.08,1.29-.15,2.48-.19,3.38h0ZM22.75,25.18c-.09-.14-.19-.27-.29-.41l-.73,1.05a2.88,2.88,0,0,1,.22.38h.14l0-.06C22.28,25.81,22.52,25.49,22.75,25.18Zm-2.18.61a1.13,1.13,0,0,0,.13.2s0,.11,0,.23h0c0-.16,0-.31-.08-.46Zm-10,3.8-.29.34.23.2A3.17,3.17,0,0,0,10.59,28a.45.45,0,0,1,0-.18h-.46c-.05.19-.1.38-.13.57Zm15.34-9a10.36,10.36,0,0,0-.57,2.31l.94-.12.12-1.57Zm.72-.32.18-.07.09-.28a.8.8,0,0,0-.88.4,1.67,1.67,0,0,0-.08.2l.52-.19s0,0,0,0ZM27,21.86l-.63.87,1.19-.16ZM9.76,31.27,9.44,31c-.28.34-.57.68-.85,1a2.09,2.09,0,0,1,.22.5A5.24,5.24,0,0,1,9.76,31.27Zm-3.1-2.56,0,0a3.25,3.25,0,0,0-.31.62l.81.47a4.73,4.73,0,0,1,.18-.88h0l-.47-.52,0,0C6.75,28.5,6.71,28.61,6.66,28.71Zm15.73-9.07.35.67.32-.39,1-2.36a3.92,3.92,0,0,1-.27.33l-1.2,1.19C22.53,19.27,22.46,19.45,22.39,19.64ZM6,27.83c0,.14-.08.28-.11.41l.24-.41Zm-1.63,3,0-.06-.3-2.18c-.16.63-.29,1.28-.42,1.91A4.83,4.83,0,0,1,4.34,30.8Zm-1,1.11c0,.15-.06.31-.11.46a2.35,2.35,0,0,1-.52.85l.36.36.72-1.24ZM11.86,4.37a.58.58,0,0,1,.05-.14h-.78l-.88,2.05A14.12,14.12,0,0,0,11.86,4.37ZM8.32,50.79l.12-.14h0ZM5.49,33.13a2,2,0,0,1-.12-.89l-.2.14,0-.41c-.2.28-.52.65-.75,1l0-.05L2.63,35.1a4.07,4.07,0,0,1,.12.55l-.46-.11-.9,1.15,2.61,0c.48-1.1.84-1.84,1.1-2.59C5.21,33.74,5.37,33.44,5.49,33.13ZM2.71,51.88c0-.06,0-.11,0-.17l-1.07.58-.25-.11c.33-.46.66-1,1-1.46l-1.95,0,.06,2.77a10.1,10.1,0,0,0,2.22.83A22.37,22.37,0,0,1,2.71,51.88Zm17.57,10,0,.34.15.08c0-.12,0-.24,0-.35Zm5.44-43.44a6.74,6.74,0,0,0-.72.34c.05.17.09.34.14.51l.75-.05L25.6,19ZM1.34,67l-.06.77h.05A6.57,6.57,0,0,0,1.34,67Zm5.25-.5c0,.1,0,.2,0,.3l1.26.37ZM28,5.81c0,.24,0,.48,0,.72l.44.42c0-.42-.08-.81-.12-1.19ZM10.7,32.06a1.09,1.09,0,0,1-.1.11h.21ZM3.11,25.87c-.15.18-.31.36-.46.55H3c.06-.18.11-.36.16-.55Zm-2.49,3c-.21.24-.41.5-.62.73l0,1.69,1.1-1.66A4.5,4.5,0,0,1,.62,28.85Zm1.55-.8s0,0,0,0l.1-.1,0-.06H1.8c-.05.31-.11.63-.17,1ZM5,31.21l0,.05a.57.57,0,0,1,.11.11c0-.07,0-.14,0-.22ZM18.45,6.82c0-.31-.07-.6-.1-.89a9.15,9.15,0,0,0-1.26,1.35,2.3,2.3,0,0,0,1.17-.2A2.48,2.48,0,0,1,18.45,6.82ZM23.34,10c0-.13,0-.26,0-.39l.61-.48c-.05-.4-.09-.78-.13-1.16a2.16,2.16,0,0,1-.44,0c0-.2,0-.41,0-.63a19,19,0,0,0-.9,2C22.78,9.62,23.07,9.81,23.34,10ZM5.08,7.71l.09.82.24-.43Zm6.4,13-.31.23c.27.36.32.5.4.52a.88.88,0,0,0,.16,0l.09-.13Zm3.46-5.67v.1l.05,0Zm4.34-1.32-1.09-.46-.47.5.55,1.07a6.45,6.45,0,0,1,1.1-.58C19.34,14.09,19.31,13.93,19.28,13.74Zm1,11a10.15,10.15,0,0,1,1,.51.94.94,0,0,1,.18.17,6.19,6.19,0,0,1,.16-1.87l-.14-.19a2.41,2.41,0,0,1-.22-.57l.25-.41c.14.12.28.22.42.33l0-.08c-.07-.36-.13-.74-.18-1.1l.12-.15a1.62,1.62,0,0,1-.1-.18l-.54,1.37A8.92,8.92,0,0,0,20.26,24.76ZM25,7.63c.11-.24.24-.46.34-.7a3.46,3.46,0,0,1-.36.49A1.49,1.49,0,0,0,25,7.63Zm.25,9.62c-.1-.06-.19-.13-.29-.18,0,.22-.07.44-.1.66ZM9.41,34.11l.46-1.21a6.77,6.77,0,0,1-.76.59A3.25,3.25,0,0,0,9.41,34.11Zm1.82-8.63.92-.47.65-.89A3.58,3.58,0,0,0,11.23,25.48ZM16.35,7.07a2.34,2.34,0,0,0,.67.2c.15-.59.28-1.14.4-1.66A16.14,16.14,0,0,0,16.35,7.07Zm-4,15.24-.91,1.5A12.32,12.32,0,0,1,13,23.4C12.79,23,12.57,22.67,12.36,22.31ZM15.32,9l-.1.25.09.78a7.17,7.17,0,0,0,.81.1c0-.13.05-.25.08-.38Zm-6,12.9H8.94a10.09,10.09,0,0,0-1.46,1.58l.33.14a1.41,1.41,0,0,0,.94-.2C9,22.92,9.15,22.4,9.37,21.93ZM25.77,4.07h-1l.21.25A1.26,1.26,0,0,0,25.77,4.07ZM6.76,26.3l.07,0c.12-.53.25-1.09.4-1.73l-.75,1c0,.1-.05.22-.08.32ZM19.9,4.13c-.08.4-.18.86-.3,1.4h0c0,.34.07.7.11,1.06.19.09.38.2.57.27-.13.28-.26.56-.4.83l.36.22c.13-.14.28-.25.41-.4A3.87,3.87,0,0,0,21,7H20.3a12.92,12.92,0,0,1,.24-2.43,1.26,1.26,0,0,1,.25-.42ZM16.36,21.71a2,2,0,0,0,.43-.19s0-.06,0-.08Zm-5.83,1a.7.7,0,0,1,.28.15l.83-1.21-1.12.19c0,.25,0,.5-.07.75A.83.83,0,0,1,10.53,22.69Zm2.26-6.85c-.06.27-.15.54-.19.82l.7-.45Zm.34,5.21.19.32a9.3,9.3,0,0,1,1.35.29c-.31-.88.39-1.85,1-2.79l-1-.51-.28.21c-.22.33-.41.59-.48.55a1.21,1.21,0,0,1-.14-.1l-.82.59c-.09.15-.18.31-.28.46l1-.07C13.56,20.35,13.35,20.7,13.13,21.05Zm.94,1.53c.24.38.48.75.76,1.15l.13,0,.18-.63ZM12.57,20l.07.14.06-.08Zm.17,0h0l0,0h0S12.74,20.08,12.74,20.07ZM277.42,5.69l-3.59-.86c.11,1,.23,2.08.36,3.15v.08a.68.68,0,0,1-.53.73.65.65,0,0,1-.69-.63c-.16-1.23-.3-2.48-.42-3.63l-1.16-.28a6.13,6.13,0,0,1-.18-.61c-.12-.62-.23-1.25-.35-1.87a7,7,0,0,1,1.39-.19,2.28,2.28,0,0,1,0-.26l-4,.05c.3,3.11.9,8.83,1.54,12.17a30.18,30.18,0,0,0,5.77,9.84l8.25-.1a29.87,29.87,0,0,1-5.26-9.49C278.12,11.58,277.73,8.47,277.42,5.69ZM344,18.14a2.17,2.17,0,0,0,1.38.95,3.92,3.92,0,0,0-1.36-.94Zm4.27,2.35.91,1.36a12.41,12.41,0,0,1,.1-3.23L348,16.83l-.25.25.22.09-.47.15c-.32.32-.62.61-.8.8l.35.51h0l.12.2.93,1.39Zm-6.11-4.34c-.24-.92-.53-1.86-.87-3l-.14.16-1.95-2.11c.09.56.18,1.08.27,1.55a20.55,20.55,0,0,0,1.28,3.08l.39-.08c.1.34.24.78.48,1.59ZM365,21.38c.06-.29.12-.57.19-.85l-1.83-.43c.27.38.56.76.86,1.15.1,0,.19,0,.29.06s.29-.09.37,0ZM316.69.81l-3.41,0c0,.32.06.68.1,1,.54,0,1.09.05,1.63,0s.93-.52,1.31-.91A2.2,2.2,0,0,1,316.69.81Zm-50.22.58c.2.2.39.41.6.6,0-.2,0-.43-.06-.61ZM363.78,19l1.49-4.47-.45.25-.69-.75-.53.22-1.42-2.16,3.06-1c-.12.8-.22,1.39-.3,1.93l.53-.08c.53-.1.79,0,.93.24,0-.1.06-.19.08-.28l.57-.06.37.5c0-.38,0-.74,0-1.15a2.72,2.72,0,0,0,.76.87l-.1-.3c-.19-1-.37-2.17-.54-3.41l-.08.12c0-.11,0-.19.05-.29a.13.13,0,0,0,0-.06l-.93-.5h.86c-.38-2.85-.7-5.93-.9-8l-.68-.37-1.54,0c-.22.85.44,1.36,1.11,2a6.52,6.52,0,0,1-.63-.18,2.18,2.18,0,0,1,0,.25l-.85.22c-.08,1.56-.15,3-.22,4.33,0,0,0,.06,0,.08s0,.06,0,.09a.68.68,0,0,1-.53.72h0c.53.59,1,1.18,1.56,1.77l-.21.41-1.5-.11c-.14-.69-.27-1.3-.4-1.91l.18-.26a.74.74,0,0,1-.31-.52c-.26-2.16-.49-4.32-.65-6h-.07a1.23,1.23,0,0,1-.95-.83l-3,0c.29,3.12.89,8.84,1.53,12.17a22.76,22.76,0,0,0,1.73,3.92,2.16,2.16,0,0,1,1.08,1.1l-.53-.11c.19.33.4.67.62,1ZM267.19,3.24l-3.58-.85c.16,1.62.37,3.66.62,5.7a.28.28,0,0,1,0,.09.69.69,0,0,1-.53.72.66.66,0,0,1-.7-.62c-.27-2.25-.51-4.5-.67-6.2l-2.58-.61H258.3c.3,3.12.89,8.84,1.53,12.17a30.23,30.23,0,0,0,5.78,9.84l8.25-.09a29.62,29.62,0,0,1-5.26-9.5C268,11,267.52,6.48,267.19,3.24Zm58.14,19.57,8.25-.1c-.3-.37-.55-.73-.81-1.09l-2,.72c.34-.62.56-1,.77-1.4l-2.76-1.39c.17-.22.34-.43.52-.64l3,2a28.25,28.25,0,0,1-4-7.72C327.63,9.68,327,3.81,326.73.7l-3.5,0c.17,1.71.42,4.22.72,6.67a.25.25,0,0,1,0,.09.69.69,0,0,1-.53.72.66.66,0,0,1-.7-.62c-.16-1.29-.3-2.58-.43-3.77l-2.61-.63c-.26,1.6-.19,3.05-.74,4a1.78,1.78,0,0,1-.21.27c.25,2,.52,4,.81,5.5,0,0,0,.08.07.22a2.55,2.55,0,0,1,.49-.93c.13-.17-.08-.66,0-.93.2-.55.52-1.51.75-1.49a2,2,0,0,1,1.5.93,7.45,7.45,0,0,1,.3,2.32,16.34,16.34,0,0,1,2.08.38c2.79.89,2.79.91,1.19,3.83l-5.08-1.22A33.45,33.45,0,0,0,325.33,22.81Zm47.32-1.55c-.44-.6-.84-1.18-1.21-1.75a6,6,0,0,1-.1,2.2l.25.09-.29.06c0,.14-.09.28-.14.42l1.88,0-.94-.89ZM322,.75l-2.47,0V.89l2.11.77.56,1.06C322.11,2,322,1.32,322,.75ZM140.24,6.61l-1.05-.56c.31,3,.74,6.53,1.2,8.89a30,30,0,0,0,5.77,9.84l8.25-.09a30,30,0,0,1-5.26-9.5c-.3-1.54-.58-3.51-.82-5.51-.07-.22-.14-.43-.2-.65l.11,0c-.29-2.37-.52-4.7-.68-6.3l-3.49,0c.16,1.72.42,4.22.72,6.68a.19.19,0,0,0,0,.08.71.71,0,0,1-.53.73.66.66,0,0,1-.7-.63c-.32-2.53-.58-5.11-.74-6.84l-4,0c.08.79.17,1.73.28,2.76C140.05,5.86,140.11,6.05,140.24,6.61Zm230.7,5.09.12-.57c-.1-.15-.21-.29-.3-.45l-.1.1h0Zm8-1.42c.08.5.16,1,.23,1.43a3.45,3.45,0,0,0,.43-.71Zm-9.08,3a3.82,3.82,0,0,1-.08.39c.22.56.55,1.29,1,2.13.32-1.18.62-2.27,1-3.8h0C370.91,12.5,369.92,12.71,369.85,13.25ZM369.29,21c-.17-1.12-.22-2.27-.31-3.31l1.17-.31c-.44-.81-.81-1.54-1.09-2.17l-.16.21c.16.24.31.45.49.69a3.44,3.44,0,0,1-1,0,3.53,3.53,0,0,0-.71,1.48l-.39-.26c0-.56.05-1.13.07-1.71-.47-.45-.67-1.1-1.07-1.52,0,0,0-.05,0-.08l-.89.49.39.33-1.53,4.35Zm-9.53-3.43.58.21c-.12-.22-.25-.44-.36-.65C359.91,17.24,359.83,17.39,359.76,17.54Zm9.13-7.7c.11.73.22,1.4.33,2l.43-1.62ZM3.74,72l-.35.32a.64.64,0,0,1,.64,0A1.42,1.42,0,0,0,3.74,72ZM364,1.81h0l-.81-.3c0,.36.08.76.12,1.16A1.75,1.75,0,0,1,364,1.81ZM156.12,24.67l3.07,0v.08l5.19-.06,0-.08h0a34.15,34.15,0,0,1-2.64-3.83l-.43-.08.06-.53h0a29.47,29.47,0,0,1-1.93-4c-1.45.08-1.08-1.92-1.76-2.71a2.66,2.66,0,0,1,1.15.21c-.09-.59-.18-1.2-.27-1.84-1.15-.66-2.15-1.25-3-1.73a9.42,9.42,0,0,1-1.3.88,12.34,12.34,0,0,1-.65-1.08,1.11,1.11,0,0,1-.09-.19L153,8.53h.41c-.26-2.22-.48-4.4-.63-5.91l-4,0c.31,3.11.9,8.84,1.54,12.17A30.12,30.12,0,0,0,156.12,24.67ZM158,18.16l-1.1,1-2.78-3.27,2-.7ZM149.42,6l.31-.35c1.42.49,1.52.64,1.39,2.1Zm4.93,5.28c.38,1.61.94,1.4,1.48.7.86,1.3.92,2,.26,2.1C155.15,14.22,154.18,13,154.35,11.23Zm222.72,6.48c-.22-.25-.49-.57-.82-1,.68-1.32,1.21-2.82,1.9-3.84a1.76,1.76,0,0,1-.07-.25c-.6-3.09-1.14-7.94-1.46-11.19l-1.83-.6c.11-.19.2-.36.28-.51l-.28-.2H373.7c0,2,0,3.8,0,5.44l-.1,0c.05.41.09.81.14,1.22a.28.28,0,0,1,0,.09.69.69,0,0,1-.53.72.66.66,0,0,1-.7-.62c0-.37-.08-.73-.13-1.09v0a1.23,1.23,0,0,0-.84.55c-.47.86-.87,1.28-1.22,1.19l-.92,1v.05h0l.55.65c0-.15.08-.28.12-.44.1.33.2.62.29.92l.1.11a4.55,4.55,0,0,1-.29-1.11l1.44-1.33.29.2c0-.24.11-.47.16-.7.23.48.43.87.61,1.24l.16.11-.07.07c.22.47.42.88.62,1.28l.12-1.93c.43.42.86.83,1.35,1.32l1.08-.84.3.65c-.37.39-.7,1-1.1,1.1s-1-.18-1.48-.3a22.66,22.66,0,0,1-.44,2.73.45.45,0,0,1,0,.11h-.06c-.49,2-1.24,3.15-2.32,3.39.18.36.38.73.61,1.12l.37-.1c0,.18-.08.36-.12.53a34,34,0,0,0,3.42,4.81h0a1.36,1.36,0,0,1,1.25-.49C376.63,20.23,376.84,19,377.07,17.71ZM375.41,7a18.81,18.81,0,0,1-1.33-2.11l.33-.26a13.21,13.21,0,0,1,1.68,1.3c.21.21.19.73.28,1.11C376,7,375.57,7.19,375.41,7Zm1.19,4.77.27,0a8.94,8.94,0,0,1-.86,2.4c-.35.42-1,.19-1.78.28Zm-4.37,5.3c.09-1,.15-1.61.25-2.66l3.85,2.12-.34.66-3.1-.66C373,16.47,372.72,16.67,372.23,17.07ZM369.37,8.6c.09-.59.18-1.18.28-1.79-.06-.16-.13-.33-.19-.53l-.86,1.4.12,1h.63l0,0Zm-48.8,6.88.59-.33c-.37-.25-.76-.47-1.07-.73C320.22,14.73,320.38,15.09,320.57,15.48Zm-210-.2a30.19,30.19,0,0,0,5.77,9.84l8.26-.09a29.9,29.9,0,0,1-5.27-9.5c-.12-.62-.23-1.32-.35-2.06l-.44-.3c0,.32,0,.61,0,.78-1.16-.36-2.55-.2-3.1-1.85,0,0-.1,0-.14,0-2.12-1.55-4.34-3-5.19-6-.26-.91-.47-1.82-.74-2.87,1.14.45,2.21.52,2.77,2.22a3.13,3.13,0,0,0,1.32,1.73c-.17-1.53-.32-3-.42-4.05l-4,.05c0,.52.11,1.13.17,1.77,0,.14.08.27.13.41l-.09,0C109.53,8.43,110,12.61,110.53,15.28Zm19.13-9.6-.5-.19c.07.63.14,1.29.21,2,0-.06.08-.13.14-.2l.67,1.32C131.16,7.25,130.93,6.17,129.66,5.68Zm-51.22,3L76.6,9.83c0-.24-.14-.64-.23-1.05l-.48.3c.17.56.34,1.12.5,1.68a3.37,3.37,0,0,1-.31.21c-.4-1-.8-2-1.23-3.12.08.77.17,1.55.27,2.33a.28.28,0,0,1,0,.09.71.71,0,0,1-.37.62c0,.65-.12,1.32-.19,2.13-1.31.33-.46,2-.9,3.48-.27-.91-.62-1.46-.54-1.91.3-1.87-.67-2.43-1.9-2.95a5,5,0,0,1-1.3-1.24c.24,1.95.51,3.88.79,5.34a21,21,0,0,0,1.14,2.76l-.21-1.1c.78.31,1.56.62,2.34,1,.05,0,.07.17.15.39l-.93.13c-.62,2.3,1.51,3,2.12,4.88l-.43-.2c.48.66,1,1.34,1.59,2l8.26-.09A30,30,0,0,1,79.48,16C79.09,14,78.73,11.23,78.44,8.65Zm1.34,12.22c-.19.42-.32,1.08-.61,1.2s-.76-.28-1.5-.62l1.69-.86ZM77.12,22.3,76,23.47c-.35-1.5-.62-2.67-.9-3.84l.34,0Zm-1.24-4.86c.46-.86.77-1.41,1.09-2l1.37,1.34Zm55-13.07a18.66,18.66,0,0,1,2.06,2.34,8.62,8.62,0,0,1,.43.86c-.14-1.21-.26-2.37-.36-3.38Zm-1.4-1.49a8,8,0,0,1,.51,1.7l.69-1.71Zm-60.17,2c.06-.34.15-.73.24-1.27.83.88,1.77,1.08,1.3,2.47-.27.81-.42,1.7-.68,2.8l-.44-.14c0,.52.12,1,.18,1.55l2.63.93c0-.45,0-.91,0-1.46a7.43,7.43,0,0,1,1.1-.48s.07,0,.12,0c-.26-2.16-.47-4.25-.61-5.73l-4,0C69.22,4,69.26,4.39,69.31,4.86Zm62.94-2,.66.37,0-.38ZM49.89,18.68c0,.14.19.46.32.78l-1.5.93c-1.18-.67-2.53-1.09-2.57-3.26.93.22,1.81.44,2.7.64-.06-.11-.11-.24-.16-.35.37-.2.74-.41,1.11-.59-.09-.26-.15-.46-.17-.5C48.94,12.79,48.33,6.92,48,3.81l-3.5,0c.17,1.72.42,4.22.72,6.67a.28.28,0,0,1,0,.09.69.69,0,0,1-.53.72.65.65,0,0,1-.7-.62c-.22-1.83-.42-3.67-.58-5.22-1.37,2.94-2.57,3.93-3.35,3a3.85,3.85,0,0,0-.35-.35c.22,1.95.47,4,.75,5.86l.15.2c1.82-.3,1.68.88,1.39,2.19l1,.52c0,.19-.06.37-.1.56-.62-.25-1.4-.31-1.85-.78a23.27,23.27,0,0,0,1,2.2,6.19,6.19,0,0,1,2.81-2.1l-2.16,3.35.23.45,2.3,1c-.07.23-.15.47-.23.7l-1.43-.69a34.26,34.26,0,0,0,3.1,4.29l8.25-.09a32.94,32.94,0,0,1-4.55-7.56Zm-6-5.21.08-.24.87.11c.52-1.46,1-2.76,1.45-4.06.15.14.31.27.47.4-.87,1.32-.24,4-2.11,4.35C44.44,14.09,44.2,13.67,43.94,13.47ZM60.85,23.66c.17-.16.33-.33.49-.49l1.89,2.5-.07.06h1.21a18.88,18.88,0,0,0-2-2.25,51,51,0,0,0-5.76-4.15l.23-.54a3.19,3.19,0,0,1,1.13.29c1.54,1.07,2.74,2.67,4.54,3.32a29.64,29.64,0,0,1-2.53-5,2.3,2.3,0,0,1-1.46-3l.85.7C58.77,11.48,58.26,6.48,58,3.7l-3.49,0c.14,1.53.36,3.7.62,5.9l0,0c0,.06,0,.1,0,.16,0,.21,0,.42.07.63a.28.28,0,0,1,0,.09A.7.7,0,0,1,55,11c-.11.84-.22,1.61-.31,2.27l-1.93,1.55c-.32-1.15-.65-2.35-.93-3.33L54,10.3c-.3-2.44-.55-4.89-.71-6.55l-4,0c.3,3.11.9,8.83,1.54,12.17a29.74,29.74,0,0,0,5.77,9.84l5.77-.07C61.86,25,61.36,24.35,60.85,23.66ZM58.39,9.4c-.86,1.1-1.53,2-2.46,3.17C56.22,9.39,56.5,9,58.39,9.4Zm-5.55,6.73c.2,1.18,2,.76,1.68,2.55C52.4,17.27,52.4,17.27,52.84,16.13Zm-11.92-11c0-.43,0-.81,0-1.19l-1.11,0c-.07.11-.14.22-.2.33l2.24,1.69a4.43,4.43,0,0,1-2.38-1c0,.39.08.84.13,1.27.75-.44,1.14-.08,1.16,1.51l2.74-2.24c-.06-.59-.11-1.14-.16-1.61H41.68Zm23.9,2.16,1.31.6-.21.67L64.9,8c.08.76.17,1.52.27,2.3v.08a.69.69,0,0,1-.52.73.67.67,0,0,1-.71-.63c0-.13,0-.26,0-.39-.19,0-.34,0-.37-.06a6.57,6.57,0,0,1-.22-1.69c.12-.06.25-.1.37-.15h0c0-.29-.06-.57-.1-.85L61.23,6.16c.06-.17.12-.34.17-.51l2.11,1c-.12-1.12-.22-2.15-.3-3l-4,0c.3,3.12.9,8.84,1.54,12.17,0,0,0,.16.14.43s.47.38.7.55a1.58,1.58,0,0,0,1.12.36,3.45,3.45,0,0,1,3.52,2.22,4.46,4.46,0,0,0,2.32,3.06,7.59,7.59,0,0,1,1.08,1.07,6.5,6.5,0,0,1-6.79-4,2.19,2.19,0,0,1-.29.41c.47.86,1,1.82,1.74,2.85,1.09.33,2.17,1.81,3.23,2.91h.79l-.09-.18.37-.34.7.51,3.8,0c-.1-1-.21-1.91-.33-2.86a27.4,27.4,0,0,1-3.25-6.66c-.41-2.12-.79-5.08-1.1-7.78L67.51,8c0-.15.07-.3.1-.45l.75.09c-.17-1.56-.31-3-.42-4.1l-3.49,0C64.54,4.62,64.67,5.88,64.82,7.24ZM105,9.93a.69.69,0,0,1-.33.6l2,1.65-.4.62-2.21-2c0-.06.07-.11.1-.16a.75.75,0,0,1-.4-.57c-.3-2.54-.57-5.12-.73-6.85l-4,0c.19,2,.5,5,.87,7.85l2.5,1.19-.21.58L100,11.73c.18,1.35.38,2.63.58,3.67a30.07,30.07,0,0,0,5.77,9.84l8.25-.1a30,30,0,0,1-5.26-9.49c-.06-.34-.13-.71-.19-1.08l-1.79,0c.72,1,1.22,1.72,1.73,2.42l-.41.41c-.39-.42-.8-.82-1.17-1.26-.86-1-.71-1.73.35-2.43a1.88,1.88,0,0,0,.48-1.31,6.4,6.4,0,0,0-.5-1.63c.32.19.58.36.83.53-.32-2.37-.59-4.88-.78-6.83a2,2,0,0,1-.43-.5,7.53,7.53,0,0,1-.4-.86l-2.8,0c.16,1.72.42,4.22.72,6.67Zm24.27,5.49c-.39-2-.75-4.74-1-7.31A3.76,3.76,0,0,1,127,8a7.09,7.09,0,0,1-1.28-.87c.88-1.58,1.49-1.88,2.24-.86,0-.43-.09-.84-.13-1.24l-3.21-1.17c0-.3,0-.6,0-.9h-.49c.16,1.59.39,3.86.66,6.14a6.45,6.45,0,0,1,.75.22,5.3,5.3,0,0,1,1.24,1,9,9,0,0,1-1.26,1,10.46,10.46,0,0,1-1.77.58c0-.07-.14-.58-.25-1.09l-.36.19c-.06.5-.11,1-.16,1.44a12.91,12.91,0,0,1-2.22-.91c-.3-.2-.64-.38-1-.58.11.83.22,1.62.34,2.37l.7,1.09-.25.22-.27-.18c.05.24.09.51.13.73A30.23,30.23,0,0,0,126.26,25l8.25-.1A29.41,29.41,0,0,1,129.25,15.42Zm119.87,3.1c-.46-1.6-.88-3-1.21-4.44,0-.07.38-.39.68-.52-.64-3.57-1.2-9-1.49-12l-3.49,0c.16,1.71.42,4.22.72,6.67a.28.28,0,0,0,0,.09.69.69,0,0,1-.53.72.66.66,0,0,1-.7-.62c-.31-2.54-.57-5.12-.74-6.85l-4,.05c.22,2.31.61,6.05,1.06,9.19,0-.13.08-.27.12-.38s.82-.22.93,0a5.35,5.35,0,0,1,.31,1.35,4.91,4.91,0,0,0,.48,1.3,3.91,3.91,0,0,0,.86.76c-.11.18-.23.36-.35.54-.71-.65-1.46-1.26-2.12-2,.08.51.17,1,.25,1.43a30.18,30.18,0,0,0,5.77,9.84l8.25-.1a32.93,32.93,0,0,1-4.46-7.38C249.34,17.11,249.23,17.79,249.12,18.52Zm-6.64-5.65-.17-.36L244.86,11c0,1.18,0,1.89,0,2.44ZM278.2,1.25c0,.31.07.66.1,1l4.21,2.22c-.13-1.24-.24-2.38-.33-3.28h-.77c.16.2.3.41.46.6-.09.17-.17.35-.26.52L280.1,1.23ZM296.87,1l-3.5,0c.17,1.71.42,4.22.72,6.67a.28.28,0,0,1,0,.09.69.69,0,0,1-.53.72.66.66,0,0,1-.7-.62c-.31-2.53-.57-5.12-.74-6.84l-4,0c.29,3.11.89,8.84,1.53,12.17a30.23,30.23,0,0,0,5.78,9.84l8.25-.1a30,30,0,0,1-5.27-9.49C297.77,10,297.16,4.14,296.87,1Zm-98.3,1c0,.46.1,1,.15,1.56l1.06,1.44a14.49,14.49,0,0,0,.05-3Zm-64.12,2-.21,0c.16,1.58.36,3.51.6,5.42v.08a.69.69,0,0,1-.45.68l.24.89c-1.44.14-2.69-.05-3.69.44a1.8,1.8,0,0,1-1,.23c.16,1.19.34,2.31.52,3.24a30.07,30.07,0,0,0,5.77,9.84l8.25-.1a29.64,29.64,0,0,1-5.26-9.5c-.17-.84-.32-1.83-.48-2.88a21.57,21.57,0,0,1-2.34-1.32c-.19-.13-.15-.72-.21-1.1.34,0,.79-.19,1,0a16.44,16.44,0,0,1,1.39,1.38c-.28-2-.52-4.17-.71-6l-1-.5.93.27c-.09-.87-.18-1.68-.24-2.34l-3.49,0c0,.33.07.72.11,1.11Zm-.94,14.44c-1.65-1.35-1.65-1.35-1.46-2.31C133.73,17.82,133.73,17.82,133.51,18.5ZM214.13,24a29.88,29.88,0,0,1-5.26-9.49c-.4-2.1-.78-5-1.08-7.68a8.19,8.19,0,0,0-1.15-2.46c-.13.09-.27.17-.41.25.43,1.5.85,3,1.27,4.51l-.26.08Q205.64,6.76,204,4.31c.14,1.35.31,2.87.49,4.39a.28.28,0,0,1,0,.09.68.68,0,0,1-.53.72.64.64,0,0,1-.69-.59c0-.32-.08-.64-.11-1-1.13-.55-1.93-2.18-3.3-1.29.42.93.81,1.81,1.2,2.69l-.48.37a3,3,0,0,0-1.37-1.48c.26,2.19.56,4.38.88,6h0a.13.13,0,0,0,0,.06,30,30,0,0,0,5.77,9.84l8.26-.09-.06-.07ZM203,9.29a3.44,3.44,0,0,1,1.93,4C204.25,12,203.66,10.73,203,9.29Zm84-8.14-3.5.05c.16,1.71.42,4.21.72,6.66,0,0,0,.06,0,.09a.69.69,0,0,1-.53.72.64.64,0,0,1-.7-.62c-.07-.57-.14-1.14-.2-1.7-.12.17-.25.35-.36.52L278.7,6c.29,2.62.66,5.44,1,7.42a30,30,0,0,0,5.77,9.84l8.25-.09a30,30,0,0,1-5.26-9.5C287.82,10.13,287.21,4.26,286.92,1.15ZM205.69,4.62a11.16,11.16,0,0,0-.88-2.18c-.17-.26-.62-.28-1-.34,0,.33.07.7.11,1.09l.5-.51.76,2.18Zm-5.12-2.55a1.11,1.11,0,0,0,.28,1.19,16.52,16.52,0,0,0,2,1.66l0-.25-1.24-2.61ZM206.15,2a2.37,2.37,0,0,0,1.29,1.51c-.06-.52-.1-1-.15-1.45h0s0-.05,0-.07ZM30.06,40.22h-.21l.12.12ZM141.35,71.61a12.84,12.84,0,0,0-1-.9c0,.32,0,.64-.05.91Zm-14.12-1.56-.84,1.66.27.07,2.43,0c0-.48.06-1.05.09-1.67Zm21.81.62c0-.32,0-.67.06-1a13.14,13.14,0,0,1-3.47-.36c0,.36,0,.71-.06,1a5.48,5.48,0,0,0,3.24.42Zm-23.38,0,.07,0,.27-.46-.3-.27C125.68,70.21,125.67,70.44,125.66,70.66Zm46.82-.48c-1.48-.19-1.6-1-1.64-2,0-.45-.06-.9-.1-1.4l-.33.06c-.09,1.19-.15,2.31-.21,3.27a.44.44,0,0,1,.06.16l-.06,0c0,.36,0,.72-.06,1h0v.07l3.28,0C173.68,70.73,173.4,70.29,172.48,70.18ZM160.19,71.4h0a.17.17,0,0,1,0,.07l4,0c.09-1.72.25-4.52.47-7.25a.6.6,0,0,1,1.18-.19,1.06,1.06,0,0,1,0,.19.22.22,0,0,1,0,.08c-.21,2.66-.36,5.37-.45,7.08h0v.07l3.5,0c0-.42,0-.92.07-1.46-.7-.18-1.26-.33-1.43-.64-.67-1.26.78-2.86-.69-4.1.35-.24.69-.65,1.06-.68s.92.33,1.4.37l.09-1.21c-.91-.77-1.78-1.58-2.6-2.34l2.7-1.05c.06.16.12.34.18.51.06-.56.12-1.09.19-1.59l-5.11-.09c-.06.28-.15.67-.33,1.45L162.09,59h-.88c-.13.9-.25,2-.36,3.11a1.23,1.23,0,0,1,1,.05l-1.1,1c-.13,1.46-.24,3-.33,4.38l3.4-1.19-.55,2.46-2.88-.89C160.31,69.21,160.24,70.46,160.19,71.4Zm3.53-9.15,1.55-1,1.88,1.52C164.16,62.72,164.16,62.72,163.72,62.25ZM130.35,71.4a14.62,14.62,0,0,0,1.36-.84l-1.23-1.4C130.43,70,130.38,70.75,130.35,71.4Zm-14.61-1.26,0,.58c.54.22,1.09.42,1.66.59A10.33,10.33,0,0,0,115.74,70.14Zm-6.38-1.31-1.89-2.31,1.65-.29L107,64.86c-.07,1-.14,2-.22,3.09l-.84.38c0,.41-.06.8-.08,1.19l1.34,2.37.57-.2c-.16-.45-.33-.9-.47-1.28l2-.43C109.32,69.61,109.34,69.23,109.36,68.83Zm25,2.86c0-.32,0-.72.06-1.11a2.22,2.22,0,0,0-.85-.63c-.42-.15-1.18.4-1.79.63v0l-.86,1.17Zm-2.59-1.14h0Zm46.17.72-2.5-.69v.12a2,2,0,0,0,.5.59Zm6.29-1.88-1.08.46h0a6.47,6.47,0,0,1,1.06-.11C184.17,69.64,184.18,69.51,184.18,69.39Zm-4-.15c0,.71-.08,1.38-.11,1.93h0v.07l3.2,0a2,2,0,0,1-.21-1.35h0l0,0-2.37.48c-.16-.42-.32-.81-.44-1.1ZM161.85,7.67c.05.14.26.22.29.35.08.46.12.92.22,1.77a17.63,17.63,0,0,0-3-1.82c.28,2.42.61,4.93,1,6.74v0s0,0,0,.06a26.14,26.14,0,0,0,2.79,5.76l.45.1c0,.14,0,.28,0,.41h-.09a36.92,36.92,0,0,0,2.66,3.58l8.25-.1-.05-.07h0a33.49,33.49,0,0,1-4.27-6.94h0c-1-.44-2-1-3-1.46l-.19.37c.27.57.53,1.14.86,1.83-1.83-.47-2.31-1.79-1.91-4.47l2.84,2.52c0-.87-.07-1.16-.09-1.58l.57.53c-.05-.14-.08-.24-.09-.28-.11-.58-.22-1.23-.32-1.9-.76-.77-1.5-1.6-2.33-2.31l2.05.37a.78.78,0,0,1,0-.14L167,9.39a7.5,7.5,0,0,1,1.26.18c-.33-2.62-.6-5.28-.77-7h0a.17.17,0,0,1,0-.07l-3.49,0c.11,1.21.27,2.83.46,4.54l1.92.23c-.26.87-.52,1.74-.79,2.61l-.38,0c-.18-.43-.37-.86-.57-1.35,0,.22,0,.44.07.66a.25.25,0,0,1,0,.08.69.69,0,0,1-.53.73.65.65,0,0,1-.69-.6c-.31-2.51-.57-5.08-.73-6.8h0s0,0,0-.07l-4,0c.06.66.14,1.47.23,2.33C160.73,5.1,161.17,5.58,161.85,7.67Zm2.07,6.64,0,0a.09.09,0,0,0,0,.05c1.39,1.12,1.62,1.88.64,3.39-.21-1.13-.43-2.26-.64-3.39l0,0v-.06c-.78-1.08-1.54-2.16-2.36-3.31C163,10.85,163.79,12,163.92,14.31Zm27.53,52-1.15.42c-.1,1.59-.18,3.05-.24,4.16a11.66,11.66,0,0,0,1.69.24h1.15c.22,0,.44,0,.67,0l.49-.37c.05-1,.12-2.18.21-3.53-1.19-.83-1.26-1.66-.31-2.43l-3.34-2.07c-.09,1-.18,2.08-.25,3.13ZM109.64,65c0-.51.08-1,.13-1.53L107.29,63c-.23-.75-.39-1.29-.55-1.83l-.61,0c-.13.6-.27,1.19-.44,1.94l-1.57-1.47-1.29.62h0C105.1,63.12,107.38,64,109.64,65ZM198.77,71c0-.31,0-.67.06-1l-2.06.09,0-.46c1.3,0,1.93-.07,2.13-.34l0-.51a3.31,3.31,0,0,0-.25-.59l-3.26.8s0,0,0,0c0,.76-.09,1.48-.12,2h0v.07ZM185.38,69.8a22.51,22.51,0,0,1,3.47.78c.05-1,.12-2.13.2-3.42l-.74.26c-1-.4-1.61-1.47-2.67-1.72,0,.43,0,.83-.08,1.25l1.63.91-.06.44h-1.66Q185.43,69.1,185.38,69.8Zm-16.3-1.29c0-.41,0-.84.08-1.28C168.56,67.57,168.71,68,169.08,68.51Zm21.86-9L194.31,62a4.63,4.63,0,0,1,.47,1.36.53.53,0,0,1,.4-.12.66.66,0,0,1,.51.45.58.58,0,0,1,0,.19.22.22,0,0,1,0,.08c0,.38-.06.75-.08,1.13.94.83,1.14,1.38,0,2.69L199,67c.19-3,.47-6.46.83-8.85a15.66,15.66,0,0,1,.62-1.95,8.9,8.9,0,0,1-1-.8l1.3.06a32.84,32.84,0,0,1,4-7h-.07l.05-.07-8.25.09a31.55,31.55,0,0,0-4.84,8.44,3.16,3.16,0,0,1,.2,1.92l-.75-.18C191,59,191,59.24,190.94,59.53Zm7.32,3.4c-.73.47-1.32,1.09-1.63,1-.53-.16-.88-.77-1.3-1.19l.45-.34Zm-3.14-12.14,3.53,3A2.94,2.94,0,0,1,195.12,50.79ZM156.89,7.58a17.77,17.77,0,0,1,1.39,2c-.11-.85-.21-1.7-.3-2.53a4.57,4.57,0,0,1-1.42-2.21h1.18c-.09-.83-.16-1.61-.22-2.25l-3.5,0c.15,1.54.37,3.73.63,5.93h1l.09-.48-1.24-1.23C155.56,5.9,156.39,6.91,156.89,7.58Zm27.49,58.71c0-.17,0-.34,0-.51a3.16,3.16,0,0,0-.57.22ZM60.25,47.39l.55,1.21,2.76,0Zm297.64-25h1.23l0-.13a3,3,0,0,1,1.21.12l2.4,0-5-.39A3.54,3.54,0,0,1,357.89,22.43Zm-342.41,20a7.05,7.05,0,0,1-2.4.66c-.36,0-.72-.11-1.08-.16,0,.33,0,.58,0,.78l.51.06c.75.1,1.64.7,2.31.32l.09-.33c0,.08,0,.16,0,.25a1.52,1.52,0,0,0,.51-.71c0-.08.39-.12.66-.1.53-1.92,1.14-3.58,3.07-1.43a4.88,4.88,0,0,1,.45-.58c.11-.38.23-.78.39-.85h0l-4.95,0A8.49,8.49,0,0,1,14.43,42ZM26,41.52c-.1.13-.2.27-.31.4l-.36-.2c-.05.38-.1.78-.14,1.18l2.55-1.77-1.07-.87-1.11,0c-.05.28-.09.57-.14.87Zm32.38,7.11H59.6a2.81,2.81,0,0,1-.77-.52C58.67,48.28,58.48,48.46,58.33,48.63Zm-16.5-.39A3,3,0,0,1,40,47.14c-.57.58-1.11,1.15-1.62,1.72l3.87,0C42.15,48.51,42,48.28,41.83,48.24ZM214.59,63.19l-.28-.13.27-.5,4.61.44c.05-.52.09-1,.14-1.53a8.53,8.53,0,0,1-1.53-.16c-2.36-.49-2-2.2-2-3.85a8.32,8.32,0,0,1,2.35,1.4,8.52,8.52,0,0,1-1.1,1.41l2.36.82c.11-1.15.24-2.24.37-3.16a29.21,29.21,0,0,1,4.87-9.68h-.06l0-.07-8.26.1a28.94,28.94,0,0,0-5.36,10c0,.3-.09.66-.13,1l2.58.12c0,.35.06.72.06.78l2.1,1-.19.42-1.81-.08c-.11.48-.2.88-.29,1.3l-2.78-.48c-.17,2-.32,4.13-.43,5.93.48.13,1,.4,1.44.56l-.13.46,1.65-.53a2.3,2.3,0,0,1,0,2.05h.87c.09-1.72.25-4.51.47-7.25A.67.67,0,0,1,214.59,63.19Zm4-13.41,3.82-.25c0,.49,0,1.14.09,1.78l-1-.32c0,.48-.05.95-.09,1.67ZM101.21,61.91a2.22,2.22,0,0,0,1.63.33l0,0h0l-1.42-1.94C101.34,60.78,101.28,61.33,101.21,61.91ZM355.33,20.22c-.09.52.14,1.24-.31,1.64h0l-.26.09.43.53h.87a13.52,13.52,0,0,0-.18-1.82C355.84,20.47,355.63,20.35,355.33,20.22Zm-6.56,2,0,0,0,.3h.5c0-.2,0-.39,0-.59Zm-3.54.32,2.68,0-3.36-.8C344.77,22,345,22.3,345.23,22.58Zm8.1-.09h.15l0,0ZM23.14,31.28c.4-.48.78-1,1.2-1.44s.77-.71,1.16-1.05L25,28.17l-2.25,2.24ZM64.26,67.9l-2.91-3.26-.17.12c0,.16,0,.33,0,.49l.56,1-.62-.29c-.16,2.17-.29,4.31-.38,5.9l2.41-.48,1.24,1.17h.29c.06-1.27.17-3.14.31-5.13A1.61,1.61,0,0,0,64.26,67.9ZM61.69,60c0,.34-.1.73-.15,1.13.17.24.34.48.52.69l.37-.32-.66-1.8C61.72,59.9,61.69,60,61.69,60Zm-.37,3.18a2.69,2.69,0,0,1,.43.24,32.54,32.54,0,0,0,2.88,1.9,2.47,2.47,0,0,0,.46.15c0-.08,0-.16,0-.24a.63.63,0,0,1,.67-.64.69.69,0,0,1,.56.71v.08c0,.13,0,.27,0,.4l.4.08.58.07a1.55,1.55,0,0,1-1.07,1c0,.65-.09,1.28-.13,1.9l1.75-.32,1.35,2.21.28-.07c0-.73.09-1.52.15-2.37l-1.36-.54.06-.29,1.35.15c.15-2.29.36-4.77.61-6.8A24.28,24.28,0,0,1,65.9,56.9l.34-.36,4.22,2.92c0-.12.1-.37.22-.76-.39-.3-.78-.6-1.16-.91a1.91,1.91,0,0,1,1.2.07l.24,0c.23-.65.57-1.48,1-2.43l-.43-1.23.82.45a33.49,33.49,0,0,1,3-4.8L67.05,50c-.22.29-.41.56-.62.85l2.77,1.33-.42.62c-1.4.22-2.11-.55-2.89-1.21-.56.8-1.07,1.57-1.49,2.3-.12.69-.22,1.29-.32,1.86l-.39.13-.18-.38c-.23.45-.42.86-.6,1.26l.41.09c-1.26,1.18-1.43,3-.41,3.38.8.29,1.91-.07,3.27-.17l3.12,2.31-.3.45a9.55,9.55,0,0,0-2.38-.93c-1.19-.15-1.72.38-1.67,1.14l2.35-.09c0,.13,0,.26,0,.4l-1.9,1.26c-1.36-.73-2.69-1.45-4-2.18C61.37,62.66,61.34,62.92,61.32,63.2Zm10.28-3,.6.42.57-.67-1-.54c-.07.26-.13.44-.13.45S71.61,60.13,71.6,60.24Zm.84-2.05c0-.19,0-.38,0-.57-.07.18-.16.37-.22.53ZM36.25,69.35a.94.94,0,0,1,0,.09c-.08,1.18-.14,2.23-.18,3.1l1.66.26,1.81,0a1,1,0,0,0,0-.18Zm3.45.26-.38-.28-.36.36.69.68C39.66,70.12,39.68,69.87,39.7,69.61ZM267.35,46.32H268a3.62,3.62,0,0,1-.38-.26ZM46.2,68.91c0,.47-.06.91-.09,1.35.34.17.73.43,1.06.59-.05.2-.1.4-.14.6a2.22,2.22,0,0,0-1-.41c0,.61-.07,1.17-.09,1.65h.07l3.42,0c0-.25,0-.55,0-.83l-1.61.8C48.75,70.27,47.62,69.49,46.2,68.91ZM43.53,72.4l-2.64-1.93c0,.36,0,.72-.06,1l1.25,1.23,2.65,0c0-.37.05-.82.07-1.27A4.59,4.59,0,0,1,43.53,72.4ZM374.31,51.69c.07-.14,0-.35-.12-.58l-.1-.09s0,0,0-.06a8.07,8.07,0,0,0-.68-.88,16.42,16.42,0,0,1-2.34,4.06c-.1.26-.23.54-.31.76a3.36,3.36,0,0,1,1.1.43l.7-1.52.61,2.08.73.09a6.7,6.7,0,0,1-.33,1.49c-.66,1.24-1.42,2.36-2,3.63l1.51.26-.63.79,1.08,1.18h0c0-.51.07-1,.11-1.55a.64.64,0,0,1,.67-.64.71.71,0,0,1,.57.71s0,.06,0,.09V62a14.91,14.91,0,0,0,1-4.16c-.43-.77-.86-1.54-1.25-2.32C374,54.33,373.5,53.13,374.31,51.69ZM229.14,8.31c.25,2.07.54,4.14.83,5.68a30.46,30.46,0,0,0,5.78,9.84l8.25-.09a29.86,29.86,0,0,1-5.26-9.5c-.68-3.54-1.29-9.41-1.59-12.52l-3.49,0c.16,1.72.41,4.22.72,6.67v.09a.67.67,0,0,1-.53.72.66.66,0,0,1-.7-.62c-.31-2.53-.57-5.11-.73-6.84l-3.42,0V1.75h-.57c.16,1.7.41,4.18.71,6.62Zm4,2.37-.09.74c-1,.76-1.82-.46-2.72-.73l.07-.52ZM167,56.19,169,57.42c-.13-.63-.2-1-.27-1.27l.47-.12c.23.83.47,1.67.79,2.8a3.31,3.31,0,0,1,0-.33,28.84,28.84,0,0,1,4.87-9.68h-.07l.06-.07-8.26.09a31.74,31.74,0,0,0-4.65,7.95C164,57.49,166,57.4,167,56.19Zm-45.75-6.58-.68-.24-2.57,0,.1.37-.45.26-.5-.62h-.35a29.2,29.2,0,0,0-5.37,10c-.14,1-.28,2.18-.39,3.46a6.06,6.06,0,0,1,.27.79l-.34-.06c-.11,1.22-.21,2.47-.29,3.68,0,.06.06.13.1.18a12.13,12.13,0,0,0,3.7,2.66c0-.21,0-.45,0-.68l-.79-.41a2,2,0,0,1-.83-.59c-.53-.86-1-1.76-1.32-2.42.35-.81.64-1.47.92-2.13l.37-.15c.13.55.27,1.09.44,1.82l1.39.24c-.35.65-.64,1.16-.83,1.51l.76.42c.06-1,.14-2,.22-3.09a.63.63,0,0,1,.67-.64.68.68,0,0,1,.56.71v.08c-.1,1.23-.18,2.46-.26,3.61l2,1.13,1.18-1.07.27.2c.19-3.13.49-7.08.88-9.7a23,23,0,0,1,1.29-3.55l-2.07.52-1.89-1.91,4,1.19a33.11,33.11,0,0,1,3.49-5.93l-4,0C121.14,49.45,121.21,49.52,121.27,49.61Zm38.91,3.13-.39.32L156,50.82l1.51-.21-1.22-1.25a29.36,29.36,0,0,0-5,9.5l1.86,1-.25.36c-.59-.09-1.21-.14-1.78-.26-.33,2.64-.58,6.23-.75,9l.35.39-.38.08c0,.32,0,.63-.06.92l.43-.08a4.22,4.22,0,0,1,1.22.28,6.06,6.06,0,0,0,.17-1.33,8.58,8.58,0,0,0-.32-1.44l2.63.07c.07-1.17.16-2.43.26-3.69a.64.64,0,0,1,.67-.64.69.69,0,0,1,.56.71v.09c-.21,2.65-.37,5.36-.46,7.07l3.5,0c.09-1.7.24-4.42.46-7.13l-1,.94A4.83,4.83,0,0,1,159.52,63c.12-1.33.26-2.63.4-3.74v.13c0-.13,0-.27,0-.4h-.84a2.64,2.64,0,0,0,0-.29l1-.26c.06-.2.15-.51.29-.94a11.07,11.07,0,0,0-2.57-1.63c-1.64-.61-1.87-1-.44-2.33a9,9,0,0,0,3.42,2.84,32.34,32.34,0,0,1,4.12-7.39h-.07a.35.35,0,0,0,0-.08l-8,.09C158,50.22,159.08,51.48,160.18,52.74ZM135,54.36c0,.53,0,1.14,0,1.85A10.54,10.54,0,0,0,133,55a23.46,23.46,0,0,0-1.67,4.23c-.33,2.23-.6,5.56-.79,8.45a2.91,2.91,0,0,0,1.52-.17c.34-.13,1.22.79,1.81,1.26a5.54,5.54,0,0,1,.54.64c.08-1.49.2-3.22.34-5a.63.63,0,0,1,.67-.64.71.71,0,0,1,.56.71v.08c-.16,1.89-.28,3.8-.37,5.37.71.2,1.44.37,2.21.57,0-.77-1.46-1.86.37-2.57.24.68.44,1.2.7,1.92l.25-.6c.12-2,.28-4.34.49-6.57l-.24-.08c-.7-.31-1.37-.65-2.07-1l-4.55-1.93.39-.54c2.19.86,4.38,1.7,6.55,2.58.11-1.11.23-2.14.37-3a15,15,0,0,1,.53-1.71,2.06,2.06,0,0,1-1.44-1.28c.6.19,1.16.39,1.72.56l.26-.65c-.55,0-1-.2-1.31-1.35l1.78.31A33.61,33.61,0,0,1,145,49.09l-8.26.09a33.42,33.42,0,0,0-3.28,5ZM120.51,69.55l2.66,1.92c.1-.75.19-1.39.3-2.21.28.31.36.47.5.55l.48.24c.09-1.6.22-3.55.37-5.49a.64.64,0,0,1,.67-.64.69.69,0,0,1,.56.71.27.27,0,0,1,0,.09c-.12,1.55-.22,3.09-.31,4.47l.24,0a3.19,3.19,0,0,0,.89-.11c1.53-.61,1.7-.68,2.34.52,0-.55.07-1.13.11-1.74-.39-.44-.78-.87-1.16-1.31l.45-.39a6.22,6.22,0,0,0,.76.9c.19-2.81.45-6,.78-8.16a22.79,22.79,0,0,1,1.63-4.29c-1.3-.27-2.24.06-2.51.87l-2.88-.5c.25-.67.45-1.24.49-1.35l5.15.47a34.63,34.63,0,0,1,3-4.87l-8.25.09a28.94,28.94,0,0,0-5.36,10C121,62,120.7,66.36,120.51,69.55Zm7-12.43,2.09,2.47C127.19,58.57,126.64,57.84,127.51,57.12ZM220.19,66a1.4,1.4,0,0,1,.56.28,6,6,0,0,0,3.3,1.78c.08-1.4.19-3,.31-4.54a.63.63,0,0,1,.68-.64.66.66,0,0,1,.51.45,1.08,1.08,0,0,1,0,.19v.08c-.13,1.64-.24,3.27-.32,4.7l.78.37a3.7,3.7,0,0,1-.82.24c0,.65-.07,1.26-.1,1.77h0v.07l3.49,0c.1-1.92.29-5.19.55-8.26l-2.5-.44L228,63.91l-.63.22c-.39-1-.78-1.93-1.18-2.89l.55-.33,2.48,1c.05-.54.1-1.07.15-1.58-.22-.14-.45-.27-.66-.42s.16-.94.28-1l.54,0c.05-.42.1-.83.16-1.19a28.75,28.75,0,0,1,4.87-9.68l-4.58,0v-.07l-3.68,0a29.2,29.2,0,0,0-5.37,10C220.63,60.26,220.38,63.26,220.19,66Zm8-8.44c-2.72,2-2.95,2-4.34.39ZM180.41,49l-.66-.34-3.22,0a28.94,28.94,0,0,0-5.36,10c0,.34-.1.72-.15,1.1l.95-1.34c-.11,1.79-.15,2.13-1.07,2.42-.13,1.24-.25,2.59-.35,4,.61,0,1.23,0,1.84,0a4.4,4.4,0,0,1,1.87.32c.09,0,.15.13.24.19,0-.46.06-.91.1-1.37a.64.64,0,0,1,.67-.65.66.66,0,0,1,.51.46.58.58,0,0,1,0,.18.28.28,0,0,1,0,.09c-.06.77-.11,1.52-.16,2.27.21.22.42.43.66.64l-.75.66c0,.34,0,.65-.06,1l.56-.06,0,0,2.58,2.65h.25c0-.53.06-1.18.1-1.88h0c-1-.19-1.91-.5-2.85-.76.29-.15.64-.46.84-.4,1.32.42,1.6-.29,1.75-.61-.79-.74-1.3-1.2-1.78-1.68,0,0,.06-.19.13-.36l1.33.23-.57-.66c.48-.86.86-1.54,1.32-2.39a2.79,2.79,0,0,1,.22,1.41c.16-2,.35-4,.58-5.53-.51,0-1.14.52-1.77.66.18-.56.5-1.17.89-1.21a8.08,8.08,0,0,1,1,0,30.33,30.33,0,0,1,4.8-9.4h-.06l0-.08-4.19,0Zm-4.84,12.83-2.5-2.64C175.51,59.26,175.29,60.72,175.57,61.86Zm3.4-4.58c-.49.23-.83.44-.89.39-1.13-.87-2.22-1.78-3.68-3C177.28,54.36,177.52,56.35,179,57.28Zm1.86-1.68-.45.57a1.65,1.65,0,0,1-2.2-1.08c-.07-.17.31-.46.48-.7Zm9,3.12c0-.1,0-.22.05-.32l-.68-.16h0Zm20-9.35-1,1.28c-.22-.37-.37-.63-.57-1l-1.23.88L205.94,49a31.9,31.9,0,0,0-3.86,6.51l.55,0c-.29.71-.59,1.08-1,1.12a13.45,13.45,0,0,0-.58,1.76c-.33,2.2-.59,5.47-.78,8.33l1.68-.37c.63,1.72.63,1.72,1.6.82a3.84,3.84,0,0,1,.63.84c.08-1.34.18-2.83.3-4.31a.64.64,0,0,1,.67-.65.67.67,0,0,1,.51.45,1.62,1.62,0,0,1,0,.19.28.28,0,0,1,0,.09c-.08,1-.15,2-.21,2.93a1.5,1.5,0,0,1,.9.32,3.24,3.24,0,0,0,2.52,1.17c.08-1.36.18-2.91.31-4.46l-1.49-.47,1.57-1.43c-1.79-.71-1.8-.73-.66-1.78l.87.46c0-.37.08-.74.12-1.09a2.39,2.39,0,0,0-.13-.21h.16c.05-.42.1-.83.16-1.2a28.75,28.75,0,0,1,4.87-9.68h-.06a.35.35,0,0,1,.05-.08l-8.26.1c-.06.07-.1.14-.15.21ZM220,14a.15.15,0,0,1,0,.07A30.34,30.34,0,0,0,225.8,24l8.25-.1a32.63,32.63,0,0,1-4.75-8v0a11.73,11.73,0,0,1-.52-1.48c-.68-3.54-1.29-9.37-1.58-12.45h0V1.76l-3.5.05c.09.87.19,2,.32,3.13a4.35,4.35,0,0,1,1.86.79L224.12,6c.09.83.19,1.67.29,2.51,0,0,0,.06,0,.09a.71.71,0,0,1-.53.73.65.65,0,0,1-.69-.6c-.31-2.52-.57-5.08-.74-6.8h0s0,0,0-.07l-4,0c.3,3.11.9,8.84,1.54,12.17Zm.87-6.49c0-.28.05-.56.08-.84a4.47,4.47,0,0,1,1.38.16c.13.06,0,.79.06,1.22ZM181.23,58.28l.43.08a6.94,6.94,0,0,1-.17,1.42l-.57.49c-.19,1.64-.36,3.56-.49,5.42a4.29,4.29,0,0,0,1.2-.16c-.14,1-.25,1.82-.4,3,.64-.53,1.58-.95,1.61-1.41,0-.87.84-1.91-.47-2.67s-1.89-1.95-1-3.38l1.54.46,1.66.52-.75,1.93.76-.18a.6.6,0,0,1,.63-.45.58.58,0,0,1,.36.23c1-.23,2-.45,2.93-.67,0,0,0-.19.08-.32L187,61.9l1.81-.88-5.21-5c1.38.34,2.83.37,3,.81.52,1.21,1.58,1.17,2.61,1.4l0,0h0c.06-1.6.13-3.19.19-4.81.37.89.44,2.18,1.16,2.57l.08,0a32.49,32.49,0,0,1,4.13-7.46h-.06l.05-.07-8.26.1A29.89,29.89,0,0,0,181.23,58.28Zm-37.66-1.59c0,.18,0,.36-.08.54a7.67,7.67,0,0,0-1.53-.07,20,20,0,0,0-.65,1.94c-.36,2.46-.65,6.24-.84,9.3l.82,1.31c.07-.77.1-1.09.15-1.61.76.45,1.29.82,1.88,1.11l1,.53c0-.25,0-.53,0-.8a7.32,7.32,0,0,1-3.67-2.25,5.54,5.54,0,0,1,3.76.86c.06-1,.14-2.12.23-3.21a.63.63,0,0,1,.67-.64.71.71,0,0,1,.56.71v.09c-.1,1.24-.19,2.49-.26,3.65a6,6,0,0,0,3.28.62l.17-.08c.18-2.86.44-6.47.79-9.15a2.37,2.37,0,0,1-.95-1.12l.41-.6c.26.15.51.29.77.42A30.15,30.15,0,0,1,154.93,49l-8.25.09a32,32,0,0,0-4.49,7.54C142.65,56.65,143.11,56.66,143.57,56.69ZM148.5,62c.08.18.15.37.23.55l-2.32.68C146.58,61.59,146.58,61.59,148.5,62Zm-62.78-5.2c.56-.2,1.42.2,2.15.32,0,.19-.06.37-.1.56l-2.31.22,2.82,1.59-1.2.95,3,1c.08-.76.17-1.5.26-2.13a29.21,29.21,0,0,1,4.87-9.68L87,49.75a31.2,31.2,0,0,0-5.09,9.12A34.11,34.11,0,0,1,85.72,56.84ZM249.88,13.76s.07.22.18.52a4.94,4.94,0,0,1,.68.61A10.32,10.32,0,0,1,251.89,17l-.44.23-.18-.17a33.55,33.55,0,0,0,4.39,6.58l8.25-.09a29.9,29.9,0,0,1-5.27-9.5c-.68-3.54-1.29-9.41-1.58-12.51l-3.5,0c.17,1.71.42,4.21.72,6.66a.31.31,0,0,1,0,.09.84.84,0,0,1-.11.38l1.44.34c.82,1.89.7,2.67-.45,3.23A27.62,27.62,0,0,0,253,9.74c-.24-.22-.82.11-1.24.12s-1,.1-1.18-.16a9.91,9.91,0,0,1-.73-2.07l3.19.77h0c-.31-2.53-.57-5.11-.74-6.84l-4,.05C248.64,4.71,249.24,10.43,249.88,13.76Zm3.68,5c.07-1.43-1.72-2-.81-3.65C254.41,16.57,254.65,17.43,253.56,18.72Zm0-4.72-2.34-.91c.05-.14.09-.28.14-.42C253.79,13.06,253.79,13.06,253.59,14ZM76.2,54.84l-.48.65L74,54.43c-.16.29-.34.6-.49.89l.61.33-1,.66c2,2.14,4.8,3.27,7,5.16.09-.72.17-1.41.26-2a.14.14,0,0,1,0-.06,7.76,7.76,0,0,1-.63-1.46c-.08-.24.7-.77,1.18-1a.34.34,0,0,1,.25,0c.25-.63.56-1.34,1-2.15l-.72-.71c-2.68,3.12-4,3.61-5.35,2.25,1-2,3.17-1.66,5.35-2.25l-2.3-2.27c-.18.82-.27,1.2-.36,1.61l-.87-.21L77,50.81c1.43.38,3.16.49,4.34,1.24a4.25,4.25,0,0,1,1.34,1.82,33.64,33.64,0,0,1,2.58-4.1l-6.82.08v0l-.11,0-1.32,0a32,32,0,0,0-2.69,4Zm-16.71-2c-2.08.64-3.15.39-3.68-1a27.63,27.63,0,0,0-4.07,8.27c-.2,1.32-.37,3-.52,4.81l.42.06a2.28,2.28,0,0,1,2.29,2,5.07,5.07,0,0,1-2.89.21c0,.18,0,.36,0,.54l2.87,2.08.27.88a8.37,8.37,0,0,1-2,.5A1.48,1.48,0,0,1,51,70.47a5.72,5.72,0,0,1-.17-.59c-.06.89-.1,1.68-.14,2.38A14.33,14.33,0,0,1,53.21,72c.12.21.22.43.34.65h.76c-.05,0-.11-.09-.13-.14a4.2,4.2,0,0,1-.11-1.63l.7.16c.08-1.34.18-3,.3-4.6-.81-.72-1.54-1.31-2.17-2a3.88,3.88,0,0,1-.55-1.18,4.87,4.87,0,0,1,1.44.24c.67.37,1.32.78,2,1.22h0a.6.6,0,0,1,.41.29c.31.21.64.41,1,.63l-.88.41c-.14,1.86-.26,3.7-.34,5.18.45-.14,1.1-.43,1.22-.32a17.25,17.25,0,0,1,1.43,1.65h.77c.09-1.71.25-4.49.47-7.24-.71-.26-1.59-.44-1-1.34a2,2,0,0,1,1.2-.89c0-.49.09-1,.15-1.42a5.82,5.82,0,0,1-.47-.71,2.13,2.13,0,0,0-2.88-1,3.15,3.15,0,0,1-4-1.75c.46.14,1.11.42,1.18.34,1.47-1.8,1.71,0,2,.24,1.59.2,2.93.08,3.82.57a3.21,3.21,0,0,1,.62.48s0-.08,0-.12a19.39,19.39,0,0,1,.6-1.87l0,0L58.4,56.32l.29-.52,2.93.65c.32-.74.73-1.57,1.22-2.48l-.57-1.28.31-.32.88.53c.38-.65.82-1.33,1.3-2a2.8,2.8,0,0,0-.41-.13c.15-.23.31-.46.46-.7l.39.19.16-.23-8.26.09c-.29.37-.54.73-.8,1.09ZM57.27,63.54c-3-1.73-3-1.73-2.68-2.93Zm-1,9.05-.34-.28c0,.09,0,.2,0,.28ZM80.85,58v0h0Zm24.51-4.74c.16.19,0,.59,0,1l-1-1A27,27,0,0,0,101.66,59a10.9,10.9,0,0,1,2.62-.11A5.68,5.68,0,0,1,106.66,60a21.69,21.69,0,0,1,2.24,2.06,1.63,1.63,0,0,1,1-.26c.1-1,.21-1.9.33-2.7a28.84,28.84,0,0,1,4.87-9.68l-8.25.1a32.22,32.22,0,0,0-2.13,3C105,52.78,105.16,53,105.36,53.22Zm1.4-2.77c.52-.32,1-.9,1.61-.94a13,13,0,0,1,2.78.43c-.15.43-.34,1-.49,1.39ZM87,60.48v0l0,0,0,0ZM103.18,51l.6.58c.41-.66.87-1.34,1.39-2l-3.35,0C102.27,50.06,102.72,50.54,103.18,51ZM84.65,61.32l2.56,1.44c-.07-1-.12-1.62-.17-2.28l-.75-1.23Zm6.63.54.93.31c.25.08.37.4.59.58a16.27,16.27,0,0,0,2.31,1.77.56.56,0,0,1,.53-.26.62.62,0,0,1,.45.41c.41,0,.85-.17,1.25-.22,0-.19-.09-.38-.13-.57l-1,.15c-.21-.74-.4-1.39-.59-2.08L94,63.18c0-1,.27-1.66,0-2.12S93,60.3,92.19,59.81l2.56-.32-.37-1.92,1.93,1.36c.93-1,1.91-1.31,3.22,0l-2.28.66,0,.43a5.2,5.2,0,0,0,1.47,0c.67-.18,1.15-.34,1.48.14,0-.33.08-.67.12-1a27.59,27.59,0,0,1,3-6.86c-.49-.47-1-.91-1.44-1.33s-1.12-1-1.69-1.44l-3.27,0a29,29,0,0,0-5.36,10C91.45,60.32,91.36,61.07,91.28,61.86Zm289.31-1.29a6.75,6.75,0,0,0-.32,1.17l.77-.12c.07-.53.12-1,.18-1.57l-.2.25A1.13,1.13,0,0,1,380.59,60.57Zm-4.44-5.81a1.88,1.88,0,0,0-.23.16l.21,0S376.14,54.8,376.15,54.76Zm10.39-4.47-.1.06-.9,4.23c0,.26.1.51.14.77l.37.21.39-2a.56.56,0,0,1,.16-.78l.25-1.26-.53.08.75-1.16.08-.4-.58-.33c0,.17-.07.34-.11.51Zm-12-1.23c.09-.33.17-.67.25-1-.05-.09-.11-.17-.16-.25-.25.35-.5.7-.73,1Zm.39-1.57c0-.05,0-.09,0-.14l-.19.25ZM210.29,10l-.38.28a2.91,2.91,0,0,1-.51-.4c.2,1.57.43,3.07.66,4.26h0s0,0,0,.06a30.23,30.23,0,0,0,5.78,9.84l8.25-.1-.06-.07h0a29.89,29.89,0,0,1-5.26-9.48C218.14,10.86,217.54,5,217.25,2h0a.17.17,0,0,0,0-.07l-3.49,0c.16,1.72.42,4.22.72,6.67h0l.73.18c-1.2,1.74-1.88,1.79-3.17.48-.26-.26-.75-.19-1.09-.37a1.35,1.35,0,0,1-.51-.63c0-.08.3-.52.42-.49.78.16,1.55.34,2.34.53-.28-2.35-.51-4.68-.67-6.28h0a.25.25,0,0,1,0-.08l-4,.05c.15,1.59.38,3.86.66,6.15C209.54,8.76,209.92,9.38,210.29,10Zm2.5,3.21-1.35-1.52,2.69-.56ZM383.32,65.74l0-.41-.16.26ZM380.67,65h0s0,0,0,0S380.66,65,380.67,65ZM53.1,51.64a1.9,1.9,0,0,1,1,.34c.39-.61.82-1.23,1.29-1.87l-6.66.08a1.54,1.54,0,0,0,.41.18C50.51,50.7,51,53,53.1,51.64ZM383.38,64.85c0-.35,0-.7.07-1.07l-.37-.1c0,.28-.07.59-.11.9A1.82,1.82,0,0,1,383.38,64.85ZM386.33,62a2,2,0,0,1,2-.09l0-.23a3.62,3.62,0,0,0-1-.67,4.81,4.81,0,0,0-1.42,0A1.85,1.85,0,0,0,386.33,62Zm-5.84,2.42a2.32,2.32,0,0,1,.19.31c.08-.67.16-1.32.23-2a3.27,3.27,0,0,1-.7-.64A5.27,5.27,0,0,0,380.49,64.46Zm-4.26-14.85c-.06-.34-.13-.67-.22-1l-.36.82Zm-33.38-1c.37-.57.76-1.15,1.2-1.74l-3.38,0C341.43,47.48,342.16,48.05,342.85,48.63ZM188.62,2.2c.3,3.12.89,8.84,1.53,12.17v0a.15.15,0,0,0,0,.06,30.18,30.18,0,0,0,5.77,9.84l8.25-.1-.05-.07h0A30,30,0,0,1,199,14.8l-2.55-3.4a6.43,6.43,0,0,1,2.26,1.88c-.31-1.93-.61-4.22-.85-6.37a2.41,2.41,0,0,1-.18-.36c-.55-1.44-1.13-2.67-.3-4.24,0,0,0-.09,0-.13h0V2.1l-1,0c-.17.27-.34.55-.56.93L195,2.13h-.45a1.63,1.63,0,0,0-.11.17c-.17.31-.33.62-.49.93.16,1.61.37,3.6.61,5.57,0,0,0,.07,0,.09a.7.7,0,0,1-.53.73.65.65,0,0,1-.69-.6c-.31-2.51-.57-5.08-.73-6.8h0V2.16Zm3,7.13-.56.2c-.25-.83-.5-1.67-.76-2.51L191,6.8ZM329.54,67s0,.11.08.17l-.09.06c0,.86-.1,1.66-.13,2.3l4-.05c.08-1.71.24-4.51.46-7.24a.65.65,0,0,1,.67-.65.71.71,0,0,1,.57.72.22.22,0,0,1,0,.08l-.06.81,2.84,1.58-.42.54L335,63.85c-.16,2.16-.28,4.23-.35,5.63l3.49,0c.15-3,.52-9.22,1.06-12.88a26.65,26.65,0,0,1,2.68-6.28A9.89,9.89,0,0,1,338.91,47l-3.12,0a29.4,29.4,0,0,0-5.37,10C330,59.66,329.73,63.84,329.54,67Zm5.22-17.65.55-.63,2.82,1.87-.5.55Zm-9.2-1.89a7.82,7.82,0,0,1,.92.74,9.38,9.38,0,0,1,.91,1.26,19.18,19.18,0,0,1-2.57-1,28.76,28.76,0,0,0-4.35,8.65c-.51,3.44-.87,9.52-1,12.52l4-.05c.09-1.71.25-4.5.47-7.24a.64.64,0,0,1,.67-.64.7.7,0,0,1,.56.71v.09c-.21,2.65-.37,5.36-.46,7.07l3.5,0c0-.44,0-1,.08-1.52-1,.59-1.17.42-1.75-.23l1.8-.63c.19-3.22.5-7.63.93-10.49A29.07,29.07,0,0,1,334.09,47l-8.25.1C325.74,47.22,325.66,47.34,325.56,47.47Zm3.74,4.75c-4.24,0-4.9-.3-4.9-2.07Zm-18.78,5c-.51,3.45-.87,9.52-1,12.52l4,0c.09-1.72.25-4.51.47-7.24a.64.64,0,0,1,.67-.65.71.71,0,0,1,.56.71v.09c-.21,2.65-.37,5.36-.46,7.08l3.49,0c.16-3,.52-9.21,1.07-12.87a28.84,28.84,0,0,1,4.87-9.68l-8.26.1A29.16,29.16,0,0,0,310.52,57.24Zm33.42-7.65c1.2,1.15,2.22,1.93,4.1,1.17l.18.4-3,2.19c-.23-.65-.37-2-.8-2.06a7.9,7.9,0,0,1-1.42-.41,25.37,25.37,0,0,0-2.64,6c-.51,3.44-.87,9.52-1,12.52l4,0c.09-1.72.25-4.51.46-7.25a.65.65,0,0,1,.68-.64.71.71,0,0,1,.56.71v.09c-.22,2.65-.37,5.36-.46,7.07l3.49,0c.16-3,.52-9.21,1.07-12.87a10.19,10.19,0,0,1,.33-1.11l-1.33-.53.83-1.42c.33.36.6.67.86.94A32,32,0,0,1,354,46.77l-8.26.1c-.72.91-1.32,1.79-1.88,2.65Zm33.34-3a.5.5,0,0,0,0-.12l-1.66,0-.05.07Zm-6.47-.05.2.3.22-.3Zm2.73.5-.37-.16a4.91,4.91,0,0,1-.13.89C373.2,47.56,373.36,47.32,373.54,47.08Zm-186-43-1.73,1.64,1.63,1.73c-1.33.3-2-1.44-3.12-1.14.1.87.2,1.76.31,2.66,0,0,0,.06,0,.09a.69.69,0,0,1-.53.72.64.64,0,0,1-.69-.59c-.21-1.68-.39-3.36-.54-4.82-.17-.38-.34-.74-.51-1.13-2,2-2.11,2.51-1.05,4.43l-1.74-.08-.41-.61c.3,2.66.67,5.54,1.06,7.55h0s0,0,0,.06A29.74,29.74,0,0,0,186,24.4l8.25-.1a.18.18,0,0,1-.05-.07h0A30,30,0,0,1,189,14.75c-.67-3.54-1.28-9.37-1.57-12.46h0V2.22h-1.31A22.44,22.44,0,0,1,187.51,4Zm-1.69,11.9a2.85,2.85,0,0,1-.43,1.78c-.17.29-.92.49-1.1.31a26.86,26.86,0,0,1-1.88-2.42l.21-.24,2,2.16.26-.25c-.18-.51-.35-1-.71-2.08C185,15.53,185.77,15.65,185.82,15.94ZM349.3,69.31l4,0c.09-1.71.25-4.51.47-7.24a.63.63,0,0,1,.67-.64.71.71,0,0,1,.56.71v.09c-.22,2.65-.37,5.36-.46,7.07l3.5,0c.15-3,.51-9.21,1.06-12.87a23.29,23.29,0,0,1,1.8-4.64c.25-.82.52-1.62.79-2.43l.14.68A37,37,0,0,1,364,46.66l-3.69,0a3.42,3.42,0,0,1,0,.65,17.65,17.65,0,0,1-2.95-.55l-.13-.06h-1.5a29.17,29.17,0,0,0-5.37,10C349.82,60.23,349.46,66.31,349.3,69.31ZM358,49.6l2.26.64c-.12.53-.21.94-.33,1.46C357.38,51.25,357.35,51.21,358,49.6Zm-.66,7.3c-.94,1.35-1.3,1.88-1.67,2.4-.17-.48-.56-1.11-.48-1.44a4.83,4.83,0,0,1,.95-2C356.32,55.65,356.9,56.45,357.38,56.9Zm13.79,5a13.14,13.14,0,0,0-.59,2.92,10.29,10.29,0,0,0,.24,3.45c.39-1,.79-1.89,1.19-2.83.6.75.56.77-.3,3.6h1a13.71,13.71,0,0,1,.55-1.64c0-.49.06-1,.09-1.58a2.79,2.79,0,0,1,0-.64c0-.59.08-1.19.13-1.81l0,0C372.48,63.09,371.49,62.82,371.17,61.91Zm12.46-29.52,1.42,0,.51,0a1.41,1.41,0,0,1,.28,0c0-.15,0-.29,0-.46l.35.47h.48c0-.15,0-.29,0-.44l-1.53-1.45a3.29,3.29,0,0,0-1,.11C384,31.19,383.8,31.8,383.63,32.39Zm-13,.15,2,0c0-.61.06-1.24.1-2Zm9.52-5a.8.8,0,0,1-.11.42.56.56,0,0,1-.86.18c-.2-.16-.37-.33-.56-.49v.05a16.55,16.55,0,0,1-.44,2.95,9.87,9.87,0,0,1,.64.87l-.84,0c-.07.32-.14.64-.22,1h.77l.29-.41c.05.14.1.27.14.4h.77l.23-.34.29.27s0,0,0,.07h.49c0-.38,0-.76,0-1.13a3.51,3.51,0,0,1,.71-1.84c.14-.19.62.21,1.1.41l.23-.64a14.47,14.47,0,0,1-2.66-2A.94.94,0,0,1,380.19,27.55Zm1.6-.34-.36-.09.32.26A.85.85,0,0,0,381.79,27.21Zm-5.47,2.09a1.57,1.57,0,0,1-.05.3,1.73,1.73,0,0,1,1,.23l.82-2.08-.39-.45C377.09,27.62,376.35,27.42,376.32,29.3Zm11.39-29c0-.09.09-.17.13-.26h-.16Zm-4.55,27.89-.5,0,.4.32C383.1,28.34,383.12,28.26,383.16,28.15ZM385.85,0c.26,1.42.3,3-.33,3.32a12.64,12.64,0,0,0,1.33.66c0-.23-.05-.44-.07-.67l-.76.18c.23-.44.44-.85.65-1.24-.09-.84-.17-1.61-.23-2.25Zm2.29,4.36.21.06,0-1.51L388,3Zm-13.7,27q0,.55-.09,1.17h.71c-.06-.46-.11-.83-.16-1.14ZM23.77,44.63c0-.24-.05-.48-.07-.73l1.44-1c-.25-.6-.44-1.13-.62-1.62l-1.62-.94a6.69,6.69,0,0,1,.13,1c0,.23-.47.63-.72,1H22c.1-.48.22-1,.33-1.44l-.4,0-.69.77c.1,1,.21,1.88.3,2.72a.57.57,0,0,1,.55.28.82.82,0,0,1-.12,1c-.12.1-.21.19-.31.29v.14c.4.26,1,.45,1.45.69.07.31,0,.7.24.92.41.45,1.05.76,1.43,1.22l0,0h.7l-1-1.5,4-.47a33.89,33.89,0,0,1,2.71-2.6.55.55,0,0,1,.86.16.86.86,0,0,1,.13.41.79.79,0,0,1-.25.6c-.55.47-1,.94-1.53,1.42,0,.55,0,1.21.07,1.92l2.56,0c-.46-.32-.93-.68-1.45-1l1.3-.61.67,1.19c.65-.45,1-.91,1.5-1,1-.21,2.11-.24,3.06-.34a.37.37,0,0,1,0,.09c.34-.36.68-.72,1-1.08a2.74,2.74,0,0,0-1-.57l.21-.45,1.69.12c.34-.31.68-.63,1-.94a.58.58,0,0,1,.87.16.89.89,0,0,1,.12.42.82.82,0,0,1-.12.41l0,.09.62.05c0-.48.06-1,.11-1.44a1.05,1.05,0,0,1,.56-.64,11.51,11.51,0,0,1,1.92-.08L43,47.5l2.63,1-.67.29,1.68,0,.07-.09a1,1,0,0,1,.28-.32l.58-.69L45,45.54a6.69,6.69,0,0,1,3.21,1.36A38.1,38.1,0,0,1,51,44.21a.57.57,0,0,1,.87.16.75.75,0,0,1,.12.41.76.76,0,0,1-.24.6,33.8,33.8,0,0,0-3.29,3.25.56.56,0,0,0,0,.12l6.75-.08c-.62-.58.3-1.6-.17-2.24,3.37-.14,1.77,1.2,1.5,2.22h0A36.3,36.3,0,0,1,61,44.1a.56.56,0,0,1,.86.15.81.81,0,0,1,.12.42.78.78,0,0,1-.24.6c-.46.39-.88.79-1.29,1.19l4.36.32-.21.52c.25.4.52.81.81,1.25h1.09a37.32,37.32,0,0,1,3.73-3.91c-1.66.26-3.1-.5-3.33-1.87l4,1.31.1-.09a.56.56,0,0,1,.86.16.8.8,0,0,1,.13.42.76.76,0,0,1-.25.59,35,35,0,0,0-3.4,3.37l7-.08-.18-.08a8.09,8.09,0,0,1,1.49-.08,37.05,37.05,0,0,1,4.32-4.41.56.56,0,0,1,.87.16.85.85,0,0,1,.12.41.77.77,0,0,1-.25.6,36.16,36.16,0,0,0-3.4,3.37l8.17-.1a36.93,36.93,0,0,1,4.44-4.56.57.57,0,0,1,.87.16.79.79,0,0,1,.12.42.74.74,0,0,1-.24.59,35,35,0,0,0-3.4,3.37l8.16-.09a36.36,36.36,0,0,1,4.45-4.56.56.56,0,0,1,.86.16.82.82,0,0,1-.12,1,35,35,0,0,0-3.4,3.37h.53l.21-.32c.29.12.6.21.91.31l6.51-.07a37.08,37.08,0,0,1,4.45-4.56.56.56,0,0,1,.86.15.94.94,0,0,1,.13.42.79.79,0,0,1-.25.6,34.94,34.94,0,0,0-3.4,3.36L116,48s0,0,0,0l.29,0a36.3,36.3,0,0,1,4.4-4.52.58.58,0,0,1,.87.16.79.79,0,0,1,.12.42.75.75,0,0,1-.25.59,35.32,35.32,0,0,0-3.36,3.33l.29,0L123,47.9l-.3,0c-.14,0-.2-.5-.44-1.17l4.06,1a35.86,35.86,0,0,1,4.29-4.39.57.57,0,0,1,.87.16.82.82,0,0,1-.12,1A36.32,36.32,0,0,0,128,47.84l8.17-.1a36.3,36.3,0,0,1,4.45-4.55.55.55,0,0,1,.86.16.86.86,0,0,1,.13.41.82.82,0,0,1-.25.6,34.94,34.94,0,0,0-3.4,3.36l8.16-.09a37.08,37.08,0,0,1,4.45-4.56.56.56,0,0,1,.86.16.8.8,0,0,1,.13.42.75.75,0,0,1-.25.59,36.16,36.16,0,0,0-3.4,3.37l8.17-.09a36.67,36.67,0,0,1,3.53-3.74l0,1.85c-.63.62-1.23,1.24-1.78,1.87l1.82,0v.08l6.35-.08a38.54,38.54,0,0,1,4.45-4.56.56.56,0,0,1,.86.16.79.79,0,0,1,.11.36.75.75,0,0,1-.24.58,36.17,36.17,0,0,0-3.4,3.37h.08l-.07.07,8.17-.09.34-.4-.85-.44.39-.6.93.49a37.54,37.54,0,0,1,3.63-3.61.58.58,0,0,1,.87.16.75.75,0,0,1,.1.36.77.77,0,0,1-.24.58A33.6,33.6,0,0,0,178,47l.58.3,7.37-.08a35.77,35.77,0,0,1,3.14-3.38,5.62,5.62,0,0,1-2,.3c-.42-.07-.69-.82-1.22-1.52l3.29.57c0,.16.06.32.1.47.36-.33.73-.67,1.11-1a.56.56,0,0,1,.87.16.76.76,0,0,1,.11.36.78.78,0,0,1-.25.58,36.11,36.11,0,0,0-3.4,3.36h.09l-.07.08,8.16-.1a37,37,0,0,1,4.45-4.56.56.56,0,0,1,.86.16.79.79,0,0,1,.11.36.74.74,0,0,1-.25.58A37.25,37.25,0,0,0,197.67,47h.08l-.07.07,8.17-.09c.69-.84,1.46-1.7,2.3-2.55-1.46-.6-1.94-2.07-2.94-3.1a3,3,0,0,1,1.73.68,7.65,7.65,0,0,1,1,1.66l.59-1.26.86.83c.29-.27.59-.55.91-.82a.57.57,0,0,1,.87.16.92.92,0,0,1,.1.36.77.77,0,0,1-.24.58c-.25.21-.46.43-.7.64.55.54,1.09,1.06,1.63,1.57l-.15.25c-.7-.42-1.4-1.13-2.1-1.24-.75.72-1.45,1.43-2.08,2.14h.08l-.07.07,8.17-.1a36.89,36.89,0,0,1,4.44-4.55.56.56,0,0,1,.87.16.84.84,0,0,1,.11.36.79.79,0,0,1-.25.57,36.17,36.17,0,0,0-3.4,3.37h.08l-.06.07,8.16-.09a36.93,36.93,0,0,1,4.44-4.56.57.57,0,0,1,.87.16.79.79,0,0,1,.12.42.74.74,0,0,1-.24.59c-.37.32-.69.64-1,1v-.1c-.87.81-1.66,1.63-2.38,2.44h.08l-.06.07,8.16-.09a36.36,36.36,0,0,1,4.45-4.56.56.56,0,0,1,.86.16.86.86,0,0,1,.13.42.8.8,0,0,1-.25.59,35,35,0,0,0-3.4,3.37l8.17-.1A36.89,36.89,0,0,1,250.1,42a.57.57,0,0,1,.87.15.92.92,0,0,1,.12.42.79.79,0,0,1-.25.6,36.11,36.11,0,0,0-3.4,3.36l4.47,0-.18-.12.82-1.83,1.08,1.93,2,0a36.93,36.93,0,0,1,4.44-4.56.58.58,0,0,1,.87.16.79.79,0,0,1,.12.42.72.72,0,0,1-.25.59,36,36,0,0,0-3.39,3.37l8.16-.09c.32-.4.66-.79,1-1.19a20.61,20.61,0,0,0-3.14-2.84c-1.61-1-1.87-2.25-1.66-4a9.34,9.34,0,0,0,1.34,2c1.49,1.25,3.07,2.41,4.58,3.65.71-.73,1.47-1.45,2.31-2.17l.06,0a14.37,14.37,0,0,1-.95-3.23c1.7,1,1.83,3.11,4.16,2,.34,1.07.63,2,1,3.2-1.3-.49-2.49-.74-3.35-1.18a.73.73,0,0,1-.21.42c-.74.63-1.41,1.28-2,1.92A5.18,5.18,0,0,1,269,46.3l6.51-.08a36.16,36.16,0,0,1,3.16-3.39l-2.66.41c.92-1,1.54-2.25,2.6-2.68,2-.79,2.25,1.41,3.12,1.8l-.83.13a.69.69,0,0,1-.2.34,37.42,37.42,0,0,0-3.4,3.37l8.17-.09a36.93,36.93,0,0,1,4.44-4.56.58.58,0,0,1,.87.16.81.81,0,0,1-.13,1,36.16,36.16,0,0,0-3.4,3.37l8.17-.1a36.89,36.89,0,0,1,4.44-4.55.56.56,0,0,1,.87.16.75.75,0,0,1,.12.41.78.78,0,0,1-.24.6,34.94,34.94,0,0,0-3.4,3.36l4.39,0c.07-.09.13-.17.22-.27l.17.27,3.38,0a37.67,37.67,0,0,1,4.44-4.56.57.57,0,0,1,.87.16.79.79,0,0,1,.12.42.74.74,0,0,1-.24.59,35,35,0,0,0-3.4,3.37l7.65-.09-1.08-1.19,1.6-1.94a2.24,2.24,0,0,0,1.12,1.82c.77-.86,1.63-1.72,2.56-2.57,0,0,0,0,0-.06h.08c.23-.21.45-.42.69-.62a.56.56,0,0,1,.86.16.77.77,0,0,1,.13.42,1.1,1.1,0,0,1,0,.16c2.17.37,3.76,1.59,4.14,3.24l0,.05h0a6.16,6.16,0,0,1,1-.32c.41-.47.83-.94,1.29-1.42l-.24-.11.22-.4.36.16c.68-.69,1.4-1.37,2.19-2.06a.58.58,0,0,1,.87.16.81.81,0,0,1,.12.42.79.79,0,0,1-.25.6c-.57.49-1.09,1-1.59,1.48l2.49,1.12-.29.5-2.59-1.24c-.31.31-.59.62-.88.94a.86.86,0,0,1,.32.56l7.31-.09A36.25,36.25,0,0,1,339.67,41a.57.57,0,0,1,.87.16.79.79,0,0,1,.12.42.74.74,0,0,1-.24.59,36.17,36.17,0,0,0-3.4,3.37h1.11l-.32-.69.92.68,6.45-.07a37.08,37.08,0,0,1,4.45-4.56.56.56,0,0,1,.86.16.86.86,0,0,1,.13.41.82.82,0,0,1-.25.6,35,35,0,0,0-3.4,3.37l7.69-.09-.05,0a7.05,7.05,0,0,1,.71-1.3,3.33,3.33,0,0,0,.32.73,36.72,36.72,0,0,1,3.94-4,.56.56,0,0,1,.86.16.83.83,0,0,1,.13.42.75.75,0,0,1-.25.59,36.17,36.17,0,0,0-3.4,3.37l8-.09c.12-.38.23-.75.36-1.15q.07.35.18.69c.19-.22.37-.45.57-.67h0a2,2,0,0,1-.06-1c.48-2.1.49-4.61,2.1-5.73a1.72,1.72,0,0,0,.48-.91l-5.63.06,0,.08-.08-.08-6.47.08-.8,1.82L354,36.59l-1.39,0,1.17.8-1.56.09c.62,1,1.63,2.08-.57,2.55a6.45,6.45,0,0,0-.73-1.13,8,8,0,0,0-1.13-.82h0l-2,2.33L346.4,38l3.35.09h0c.81-.54,1.18-1,1.26-1.47l-3,0a6.18,6.18,0,0,1-2.1.92c-1.08.22-1.59-.1-1.53-.88l-35.58.41-1,1.72-1.63-1.69-18.66.21.53.57a13.45,13.45,0,0,1-2-.55l-5.46.06c-.28.47-.58,1-1,1.69,0-.68,0-1.2-.06-1.68l-5.7.07a1.67,1.67,0,0,1-2.07,0l-17.06.2a3.87,3.87,0,0,1-.27.43,4.19,4.19,0,0,0-.23-.43L229.77,38v-.07l-27,.31-.95,1.57-1.18-.44c.51-.54.84-.88,1.1-1.12l-8.82.1a2.37,2.37,0,0,1,1.2,1.3,3.49,3.49,0,0,1-4.32-1.26l-69.73.79.56.64-.42.27a2.24,2.24,0,0,0-1-.9l-14.14.17a3.22,3.22,0,0,1,.43.52l-3.45-.28.2-.21L35,40.17l.2.12c-.48.71-.79,1.19-1.25,1.88-.27-.72-.5-1.36-.72-2l-2.14,0c-.44.94-1,1.16-1.62.79l.42-.58c-.24-.06-.47-.12-.67-.19h-.58a12.68,12.68,0,0,1-1.81,3.23C26,44.35,24.81,44.28,23.77,44.63Zm133.66-1,.09.58-3.27.34C155.1,43.48,156.13,42.85,157.43,43.65Zm158.85-2.11-2.55,1.21.53-2.36Zm41.89-2.84a9.36,9.36,0,0,0-1.26-.65l1.94-.44a2.5,2.5,0,0,1,1.62-.41.21.21,0,0,0,0,.06l.6-.14c.89,1-.19,1.41-1.6,2.06l4.16,0c0,.16,0,.32,0,.48l-1.33.48.06.28,2.39.31c-2.46.79-4-.4-5.73-1.54l-1.19,1.59A9.63,9.63,0,0,1,358.17,38.7Zm-30.91-.5.81.73c-.59.79-1.08,2.16-1.77,2.24-.95.11-2.05-.78-3.08-1.24l.24-.44,2,.52-.6-.87ZM123.81,43.49l-.37.44-2.88-1.68.49-.59Zm71.89-.62-3-1.49C194.07,41.15,195.94,40,195.7,42.87Zm7.36.15-4.42-2.13C202.54,40.46,203.81,41.14,203.06,43ZM243.82,42l4-.77-1.32,1.67Zm3.89-3.16c.78-.32,1.65-1,2.3-.87a13.2,13.2,0,0,1,3.08,1.48c-.72.52-1.59.45-2.13.79s-.88,1.13-1.47,1.95c-.76-.33-1.88-.63-.78-1.56C248.34,39.93,248,39.36,247.71,38.8ZM59.89,42.94c-2,1.15-4.51.18-6.22-2.44Zm-8.38-1.43c.12.26-.13.67-.21,1h-.22c-.07-.38-.15-.75-.2-1l-3.77-.33c.06-.22.11-.43.16-.64C48.64,41.08,50.55,39.56,51.51,41.51ZM37.58,42l-1.37-.69.25-.42,4.3,2c-.1.17-.2.34-.31.5l-1.72-.85c.32.51.63,1,.91,1.58a6.71,6.71,0,0,1-.84.81c-.22-.74-.36-1.23-.59-2l-.35,1.11L37.44,44C37.49,43.3,37.53,42.63,37.58,42Zm5,4.81c0-.41,0-.82.07-1.23a4.83,4.83,0,0,0-.39.41C42.32,46.24,42.42,46.51,42.53,46.78Zm333.08-15.4q-.25.51-.51,1.11l1.14,0c.13-.34.27-.69.41-1ZM68.36,27.12c.35.54.72,1.06,1.08,1.6l.24-.21c-.23-.47-.44-.93-.67-1.4Zm311.83-7.07-.77-1.56a23.05,23.05,0,0,1-.11,2.76c-.05.31-.12.63-.19.94l3.6,0c0-.22.09-.44.13-.67-.59-.78-1.11-1.53-1.58-2.25A2.64,2.64,0,0,1,380.19,20.05Zm-307,7.35a.9.9,0,0,0,.06-.34l-2,0,.21.15-.17.13c.27.48.55,1,.82,1.45A5.68,5.68,0,0,0,73.19,27.4Zm306.45-.68c-.18-.2-.36-.43-.53-.65a.76.76,0,0,0-.08.11C379.24,26.36,379.42,26.54,379.64,26.72Zm9.05-6.22V20a1.41,1.41,0,0,1-.51-.15l-.22.3ZM38.88,30.25a38.52,38.52,0,0,1-2.7-2.76l-3.34,0a10.9,10.9,0,0,1,.46,1.36,4.84,4.84,0,0,1-.08,1.3c-1.28-.22-1.28-1.11-1.33-2L30.57,30l-.37-.68A3.39,3.39,0,0,1,31,27.55l-2.95,0a36.56,36.56,0,0,0,3.53,3.29.78.78,0,0,1,.28.59.8.8,0,0,1-.11.42.57.57,0,0,1-.86.18,37.22,37.22,0,0,1-3.27-3c0,.14-.33.4-.48.38a3.3,3.3,0,0,1-1.31-.35,5,5,0,0,1-.3.65c-.29.57-.54,1.18-.8,1.78a4.8,4.8,0,0,0,1.19.41,20.89,20.89,0,0,0,2.27-.05l-.81,1c-.92,2-1.69,2.37-3.27,1.72l2-1.31c0-.15,0-.29-.06-.35a20.32,20.32,0,0,0-3.82,3.53l2.56,0c.09-.07.17-.15.27-.22s.07.15.12.22H26c-.06-.11-.11-.23-.16-.33l2.28-2.55.32.57c-.63.76-1.25,1.53-1.88,2.3L34,36.31a1,1,0,0,1-.39-.2,21.2,21.2,0,0,1-2.52-3.36L32.54,32a2.54,2.54,0,0,0,2.08,2.37c.56.14,1,1,1.51,1.53,0,.12-.07.25-.11.37l19.15-.22-.09-.16c0-.12.41-.54.64-.82a3.79,3.79,0,0,1,.48.91.13.13,0,0,0,0,.06l32.93-.37c-1-.47-2.1-.84-2.61-2.19,1.5,0,2.46,1,3.35,2.18l4.21,0-.72-1,.26-.23,1.86,1.21,63.92-.73V35l37.65-.43-1.78-.8,2-.1c-.21-.52-.36-.92-.54-1.38,2.42,0,1,1.62,1.7,2.27l64.36-.74-2.24-1c1.89-.56,3.08-.14,3.9,1l80.31-.92c0-.56-.05-1.12-.07-1.64l1.56,1.63,13.91-.16,1.43-2.34.65.43-1.34,1.9,3.09,0,.39-.86.34.37-.19.48,4.87-.06c-.15-1.49-.3-3-.45-4.58-.67-.55-1.3-1.11-1.89-1.67.29.33.56.68.84,1l-2.47-.59c.11-1.13.51-1.41,1.15-.91-.69-.67-1.34-1.35-1.93-2l-2.1,0A7.27,7.27,0,0,1,364,26.41l-5.48-1.31c.09-.41.17-.81.26-1.23H358c0,.36,0,.73,0,1.09l-.62-.15c.81.79,1.65,1.59,2.62,2.37a.76.76,0,0,1,.27.58.91.91,0,0,1-.1.43.57.57,0,0,1-.86.17,36.81,36.81,0,0,1-4.64-4.45l-8.16.09a35.57,35.57,0,0,0,3.54,3.29.81.81,0,0,1,.16,1,.56.56,0,0,1-.86.18A38.16,38.16,0,0,1,344.73,24l-8.17.1a36.66,36.66,0,0,0,3.54,3.28.79.79,0,0,1,.28.59,1,1,0,0,1-.11.43.56.56,0,0,1-.86.17,37.42,37.42,0,0,1-4.63-4.45l-8.17.09a36.72,36.72,0,0,0,3.54,3.29.76.76,0,0,1,.27.58.8.8,0,0,1-.1.43.57.57,0,0,1-.86.18,37.56,37.56,0,0,1-4.64-4.46l-8.16.1a36.75,36.75,0,0,0,3.54,3.28.81.81,0,0,1,.16,1,.55.55,0,0,1-.85.18,38.27,38.27,0,0,1-4.64-4.45l-8.16.09a35.57,35.57,0,0,0,3.54,3.29.8.8,0,0,1,.27.58.84.84,0,0,1-.11.43.56.56,0,0,1-.86.17,38.89,38.89,0,0,1-4.63-4.45l-8.17.09a36.72,36.72,0,0,0,3.54,3.29.74.74,0,0,1,.27.59.79.79,0,0,1-.1.42.56.56,0,0,1-.86.18A36.75,36.75,0,0,1,295,24.6l-8.17.1A36.75,36.75,0,0,0,290.34,28a.83.83,0,0,1,.17,1,.56.56,0,0,1-.86.18A38.27,38.27,0,0,1,285,24.72l-7.79.09.44.8a31.67,31.67,0,0,0,2.73,2.48.84.84,0,0,1,.27.59.81.81,0,0,1-.11.43.55.55,0,0,1-.85.17,38.27,38.27,0,0,1-4.64-4.45l-8.16.09a35.42,35.42,0,0,0,3.53,3.29.8.8,0,0,1,.17,1,.56.56,0,0,1-.86.18c-.79-.65-1.53-1.3-2.22-2-1,0-1.56-1-2.17-2l.42.21c-.22-.24-.45-.48-.66-.72l-8.17.09a36.66,36.66,0,0,0,3.54,3.28.83.83,0,0,1,.17,1,.56.56,0,0,1-.86.18,37.53,37.53,0,0,1-4.64-4.45l-8.16.09a35.57,35.57,0,0,0,3.54,3.29.76.76,0,0,1,.27.58.91.91,0,0,1-.1.43.57.57,0,0,1-.86.18,37.56,37.56,0,0,1-4.64-4.46l-8.16.1a36.75,36.75,0,0,0,3.54,3.28.8.8,0,0,1,.27.59.78.78,0,0,1-.11.42.56.56,0,0,1-.86.18,38.16,38.16,0,0,1-4.63-4.46l-5.75.07v-.07l-2.43,0a.46.46,0,0,1,.07.07h0a35.29,35.29,0,0,0,3.53,3.28.81.81,0,0,1,.28.59.92.92,0,0,1-.11.43.56.56,0,0,1-.86.17l-.34-.29V29.5a38.31,38.31,0,0,1-4.31-4.17l-8.16.09.07.07h-.06a36.72,36.72,0,0,0,3.54,3.29.73.73,0,0,1,.26.52.78.78,0,0,1-.11.42.57.57,0,0,1-.86.18,38.16,38.16,0,0,1-4.63-4.46l-8.16.09.07.08h-.06a35.52,35.52,0,0,0,3.54,3.28.84.84,0,0,1,.26.52.78.78,0,0,1-.11.42A.56.56,0,0,1,210,30a38.14,38.14,0,0,1-4.63-4.45l-8.17.09a.23.23,0,0,1,.07.07h-.05A34.38,34.38,0,0,0,200.77,29a.78.78,0,0,1,.25.53.9.9,0,0,1-.1.42.56.56,0,0,1-.86.17,37.42,37.42,0,0,1-4.63-4.45l-8.17.09.07.07h-.06a38,38,0,0,0,3.54,3.28.75.75,0,0,1,.26.52.78.78,0,0,1-.11.42.55.55,0,0,1-.85.18,37.56,37.56,0,0,1-4.64-4.46l-8.16.1a.46.46,0,0,1,.07.07h-.06a35.44,35.44,0,0,0,3.54,3.28.75.75,0,0,1,.26.52.78.78,0,0,1-.11.42.56.56,0,0,1-.86.18,38.89,38.89,0,0,1-4.63-4.45l-8.16.09a.46.46,0,0,0,.07.07h-.06a35.57,35.57,0,0,0,3.54,3.29.76.76,0,0,1,.25.52.79.79,0,0,1-.1.42.57.57,0,0,1-.86.18A38.18,38.18,0,0,1,165.57,26l-8.17.09q.87.91,1.86,1.83l0,1.84a38.69,38.69,0,0,1-3.69-3.65l-8.16.1A36.75,36.75,0,0,0,151,29.5a.77.77,0,0,1,.27.59.78.78,0,0,1-.11.42.55.55,0,0,1-.85.18,38.27,38.27,0,0,1-4.64-4.45l-8.16.09A36.56,36.56,0,0,0,141,29.62a.78.78,0,0,1,.28.59.8.8,0,0,1-.11.42.55.55,0,0,1-.85.18,36.87,36.87,0,0,1-4.64-4.46l-8.17.09a36.72,36.72,0,0,0,3.54,3.29.78.78,0,0,1,.28.59.8.8,0,0,1-.11.42.56.56,0,0,1-.86.18,38.29,38.29,0,0,1-4.64-4.46l-8.16.1a38,38,0,0,0,3.54,3.29.82.82,0,0,1,.17,1,.56.56,0,0,1-.86.18,37.53,37.53,0,0,1-4.64-4.45l-8.16.09c.43.45.89.91,1.36,1.36l3.68.93c-.06.19-.11.37-.18.56L110,29c.37.34.73.67,1.14,1a.77.77,0,0,1,.27.59.8.8,0,0,1-.11.42.55.55,0,0,1-.85.18,37.56,37.56,0,0,1-4.64-4.46l-1.66,0a5.24,5.24,0,0,1,.55.72l-1.86-.7-5.19.06a35.61,35.61,0,0,0,3.54,3.28.8.8,0,0,1,.27.59.78.78,0,0,1-.11.42.56.56,0,0,1-.86.18A37.44,37.44,0,0,1,95.9,26.8l-8.17.1a36.72,36.72,0,0,0,3.54,3.29.76.76,0,0,1,.27.58.8.8,0,0,1-.1.43.57.57,0,0,1-.86.18A37.46,37.46,0,0,1,86,26.92l-7.9.09-.09.18c.25.27.53.53.8.8l.22-.3,1.28,1.69c.35.3.68.61,1.06.92a.77.77,0,0,1,.27.59.9.9,0,0,1-.1.42.56.56,0,0,1-.86.18,38.69,38.69,0,0,1-3.69-3.42,2,2,0,0,1-1.31-.76,1.68,1.68,0,0,0-.42-.27l-1.31,0c.16.8.33,1.6.51,2.49-1.25-.15-2.6.23-3.85.16.27.23.52.47.81.71a.73.73,0,0,1,.27.58.78.78,0,0,1-.11.42.55.55,0,0,1-.85.18,36,36,0,0,1-3.62-3.34l-.19.71c-.47-.6-.93-1.21-1.39-1.82l-7.6.09a37.85,37.85,0,0,0,3.53,3.29.78.78,0,0,1,.28.59.8.8,0,0,1-.11.42.57.57,0,0,1-.86.18,38.18,38.18,0,0,1-4.63-4.46l-8.17.1a38,38,0,0,0,3.54,3.28.77.77,0,0,1,.27.59.79.79,0,0,1-.1.42.57.57,0,0,1-.65.28l.49.37a7.28,7.28,0,0,1-5.07-2.75c-2.58.64-2.95.43-3.31-1.75l3.2,1.63a7.06,7.06,0,0,1-1.11-1.82l5.11,3.81a39.26,39.26,0,0,1-4.16-4L38,27.47a35.52,35.52,0,0,0,3.54,3.28.82.82,0,0,1,.27.59.84.84,0,0,1-.1.42.59.59,0,0,1-.51.3c0,.18,0,.36.08.54l-2.2-1.06c.11.62.17,1,.31,1.87a11.89,11.89,0,0,1-1.4-1.2l-1.73,3a5.63,5.63,0,0,1,1-3.78,9.13,9.13,0,0,1-1.7-3.4A10.07,10.07,0,0,0,37,29.27,12.38,12.38,0,0,0,38.88,30.25Zm231.3-3.81c1.23-.55,3.24,1,3.73,2.83C272.69,28.18,270.85,28.43,270.18,26.44ZM52.64,29.18c0-.14.06-.27.08-.4l3.91,1.44C54.88,31.23,53.8,30.06,52.64,29.18Zm38.49,5.59-4.54-2C89.82,32.34,91.17,33,91.13,34.77ZM261,33.57a6.21,6.21,0,0,1-5.54-2.2ZM363.39,26.9c-.46,3-1.43,3.89-2.07,2.77C362,28.73,362.71,27.82,363.39,26.9ZM92.28,33.53c-1.94-.24-2.88-1.73-3.6-3.56ZM82.4,29.86l.85.36-.55,1.59-.58-.2ZM44.53,31.49A5.48,5.48,0,0,1,45,32.54L42.08,32c1.41-.73,2-1,2.3-.72l3.14-.59,1.91,1.65-2.37,2.08ZM75.65,33.9a15.66,15.66,0,0,1-.72-2.1l4.45,1.25c0,.14-.07.28-.1.42-1,.29-1.93.61-2.93.84A.9.9,0,0,1,75.65,33.9ZM35.3,32.38c-.43-1-.84-2-1.39-3.28C35.72,29.86,36.06,30.9,35.3,32.38ZM388.2,16.94l.41-.57,0-1.18c-.23.43-.46.89-.69,1.32C388,16.65,388.1,16.8,388.2,16.94Zm-10.1,8.42a1.59,1.59,0,0,1,.13-.13l.2-.14c-.13-.2-.26-.38-.38-.59l.89.22c.52-.36,1.06-.69,1.59-1A3.39,3.39,0,0,1,380,25c.7.08,1.41.21,2.11.29.1-.55.21-1.1.3-1.64l-3.91,0a11.3,11.3,0,0,1-1.07,1.11Zm-6.56,1.26c.45,3.35.62,3.53,2.24,2.8-.14-.67-.44-1.56-.56-2.21l-.72-1c.22.15.46.28.69.41,0,0,0-.11,0-.14a25.09,25.09,0,0,0,1.1-2.8l-3.78,0c-.26.5-.53,1-.79,1.59-.28-.8-.43-1.22-.53-1.54l.05,0-1.37,0c.08.08.18.15.27.23l-.06.26-1.26-.48h-.41a36.19,36.19,0,0,0,3.09,2.89ZM382,6.51c-1-1-1.86-1.86-2.61-2.61.09-1,.19-2,.32-3.29h1.35c0,.9-.05,1.6-.07,2.3l.36.24a2,2,0,0,1,.59-.79c-.09-.84-.17-1.64-.23-2.29l-3.17,0-.38.32c0-.1,0-.21.07-.32h-.5c0,.22,0,.48.07.72.3.18.61.35.89.55s.31.78.44,1.18l-.55.28L378,2.41c.21,2,.49,4.47.79,6.66l.65.85.4.51a9.27,9.27,0,0,0,.24-3l1.15-.32c-.26,1.37-.51,2.71-.77,4.07l.06.08-.09.1c-.12.66-.25,1.31-.38,2l1.12-.46.1,1.62,1.41-1.35a34.59,34.59,0,0,1-.68,4.65c.37.61.79,1.24,1.26,1.9a.86.86,0,0,1,.22-.27A9,9,0,0,0,386.89,15l-1.83-1.64-1,.33c0-.11,0-.21.05-.32a4.72,4.72,0,0,1-1.64-.79,9.74,9.74,0,0,1-1.11-2.13l5.74,4a18.31,18.31,0,0,1,.92-1.62,1.91,1.91,0,0,0-1.79-1.17c-1.45-.18-1.9-1-1.52-2.58.22-.89.18-1.32-.79-1.55h0c-.08.44-.17.87-.25,1.3l-1.17-.38c0-.51,0-1-.05-1.49,0,0,0,0,0-.07-.09-.67-.17-1.35-.24-2a.67.67,0,0,0-.11.18A6,6,0,0,0,382,6.51ZM47.24,50.86l-1.12.74c-.2.28-.4.56-.58.83l1.06.11c-.34.5-.69,1-1.1,1.57l.73,1.27-.55.34c-.34-.43-.86-.84-1-1.3a1.85,1.85,0,0,1,0-.74,31.23,31.23,0,0,0-2.28,4.53,2.8,2.8,0,0,1,.37.41c1,1.57,2.4,1.7,4.08,1.65.11.53.21,1,.28,1.35l-5.34-1.47c.16.49.28.89.41,1.31l-.65,0c0,.3-.07.62-.11.94l.55.78-.62-.11c-.17,1.7-.31,3.58-.43,5.33,1.21.73,2,2.21,3.86,1.85,0-.59.07-1.21.12-1.87a5.78,5.78,0,0,1-1.48-.78c.58.07,1.06.14,1.51.22l.18-2.4a.64.64,0,0,1,.67-.64.69.69,0,0,1,.56.71v.09c-.07.85-.13,1.69-.18,2.51a6,6,0,0,1,3.33,2.43c.09-1.49.21-3.24.35-5-.43-.41-1-.66-1.3-1.17-.08.32-.15.64-.2.88l-2.63-.74c.13-.59.24-1.07.3-1.37l4-.1c.11-1.19.24-2.31.38-3.26a27.27,27.27,0,0,1,2.86-6.59c0-.09-.09-.2-.12-.25l-4.85-.12c-.26-1-.18-2.09-.76-2.54l-.1-.09h-.41c-.14.17-.24.33-.37.5ZM383.17,2.29c.27.09.53.21.78.3,0-.16,0-.36.06-.58a3.37,3.37,0,0,1,.62-2h-.8c-.11.15-.21.32-.32.47a1.3,1.3,0,0,1-.48.37C383.07,1.33,383.12,1.79,383.17,2.29ZM9.87,67l-.43.65.54.16L10,67ZM370.76,1c-1,0-1.82-.73-2.56-.57l1.13.68c-.39.19-.91.61-1.15.52s-.19-.12-.29-.18c.14,1.35.31,3,.51,4.65.41-.8.9-1.06,1.43-.75l.05,0a.68.68,0,0,0,0-.14l.74.42c.45,0,.79-.2.92-.94a2.39,2.39,0,0,1,.32-.83c-.09-.37-.18-.73-.26-1.1l.3-.12.09.1c-.1-1-.19-1.84-.25-2.56L370,.2Zm7.72,35.34h-.67a11.9,11.9,0,0,1-.83,2.51A5.38,5.38,0,0,0,378.48,36.31Zm-1.91,7-.3-.24L376,44Zm4.08-6a2.11,2.11,0,0,0,.29-1.09l-1.59,0c-.08.31-.15.62-.23,1C379.77,37.34,380.33,37.67,380.65,37.37Zm1.79.51c.21-.54.42-1.08.62-1.62h-.54l-.36,1.24ZM42.29,50.26l.67.27-.11-.27Zm3,0,.12,0,0,0ZM34.68,55.76l3.45.87.82-.94c.43.31.88.59,1.33.88.16-.24.31-.45.48-.69,0,.32-.12.6-.18.88.3.19.6.37.87.57.16-.41.36-.84.57-1.32a2.48,2.48,0,0,1-.9-.57c-.36-.42-.18-1.2-.26-2.09l1.54,1.87c.42-.84.93-1.76,1.53-2.73-2-.46-3.35-1.17-4-2.2l-1.25,0,0,.15-.44-.15H37.2a33,33,0,0,0-2.82,4.17A2,2,0,0,1,34.68,55.76Zm343-11.31h0s0,.07,0,.09S377.65,44.48,377.66,44.45Zm-.69.61,0-.12a1.5,1.5,0,0,0-.11.13Zm1-3.16c.44-.42.89-.84,1.38-1.26a8.14,8.14,0,0,0,.12-2.62C378.27,38.87,378.09,40.39,378,41.9ZM308.18,2.16a.91.91,0,0,1,.07.14,16,16,0,0,0,2.09,3.13c.65.9,1.35,1.75,2.06,2.59.26.31.66.82.88.76,1.63-.48,2.23.88,3,2.09.3.48.85.74,1.6,1.36-.22.4-.62,1.37-.75,1.32-1.06-.38-2.31.57-3.23-.76a1.88,1.88,0,0,0-1.33-.81c-1.51,0-1.78-1-1.73-2.53l1.08.06c-.84-1.1-1.66-2.17-2.49-3.23-.05-.06-.19,0-.27,0l-.55-.33c.29,2.54.64,5.24,1,7.16a30,30,0,0,0,5.77,9.84l8.25-.09a29.86,29.86,0,0,1-5.26-9.5c-.26-1.35-.51-3.05-.74-4.8-.47.35-1,.68-1.49,1.08a6.82,6.82,0,0,0-.2-2.22,2.36,2.36,0,0,1-.08-2.22c.48-1.16.33-1.46-.55-2,.08.66.14,1.27.23,2l-1.18-.29.48,1.87-.28.09L313.82,6,314,7.52a.28.28,0,0,0,0,.09.69.69,0,0,1-.53.72.65.65,0,0,1-.7-.62c-.15-1.14-.27-2.29-.39-3.37l-.23-.27c0,.66,0,1,0,1.64L310.3,4c.06-1,.1-1.79.13-2.31l1.7.11c0-.34-.06-.68-.09-1l-4,0C308.1,1.29,308.14,1.71,308.18,2.16Zm27.1,20.53,8.25-.09c-.36-.45-.67-.9-1-1.33l-1-.24c-.41-.47-.79-1-1.23-1.4a6.75,6.75,0,0,1-1.79-2.32l-.95-1.08.58-.3.33.35.94-.2a19.07,19.07,0,0,1-1.18-3c-.69-3.54-1.3-9.41-1.59-12.51l-3.5,0c.17,1.71.42,4.21.72,6.67a.19.19,0,0,1,0,.08.78.78,0,0,1-.13.43l.22.13A4.76,4.76,0,0,1,334.84,9c-.39.14-.82.48-1.17.4-2.1-.53-3-2.61-4-4.51-.15-.27,0-.75,0-1.14l.42,0A7.91,7.91,0,0,0,331.2,6.2a6.11,6.11,0,0,0,1.44,1c-.29-2.43-.54-4.88-.7-6.54l-4,0c.3,3.12.89,8.84,1.53,12.17A30.12,30.12,0,0,0,335.28,22.69ZM341,.71,340.8.54l-2.88,0c.24,2.47.66,6.57,1.15,9.83l.17-.22,2.3,2.64-.09.11c.91.72,2.47.77,1.93,2.34-.43,1.22.15,1.68,1.68,1.41a6.67,6.67,0,0,1-.52-1.36A4,4,0,0,0,341,11.6c-.37-.08-.62-.56-1.25-1.17a16.26,16.26,0,0,1,2.43.72,28.72,28.72,0,0,1,4.05,2.23,11.1,11.1,0,0,1,2.14,2.44,3,3,0,0,0,1.5,1.13,25.71,25.71,0,0,1-1.54-3.54l-.68-.25c-.46-.2-.59-1-1-1.74l1.36.62c-.61-3.57-1.15-8.72-1.42-11.57l-3.5,0c.17,1.72.42,4.22.73,6.67v.09a.67.67,0,0,1-.53.72.65.65,0,0,1-.7-.62c-.17-1.43-.33-2.85-.46-4.15-1.07-.15-2.25,0-2.9-1.64,1,.41,2,.48,2.82.9C342,1.76,342,1.09,341.9.53h-.81ZM359,20.19l-1.94.44c-.05-.12-.12-.32-.2-.53a1.29,1.29,0,0,0,.2.84,2.9,2.9,0,0,1,.6.84l1.36-1.58s0,0,0,0Zm-9.62-7.53,4.38,2c-.61.1-.93.24-1.16.17l-1.36-.42c0,.2-.09.36-.14.36a3.62,3.62,0,0,1-1-.15c.16.35.35.75.57,1.19a.93.93,0,0,1,.32-.18c.42-.1,1.22.08,1.36.42a4.86,4.86,0,0,0,1,1.59c.27-.59.62-1.2.89-1.87,1.62,1.29,3,2.39,4.43,3.55.21.18.18.57.26.87h0l0,0,1.81-.09a1.44,1.44,0,0,1,.49-.63l-2.75-2.34a8.65,8.65,0,0,1,1.11-.55,24.35,24.35,0,0,1-1.55-3.71c-.28-1.47-.55-3.34-.79-5.24-.68.8-1.31,1.53-2,2.38-.22-1.48-.4-2.68-.55-3.7l1.38-2.22.94,1.47c-.23-2-.42-3.86-.55-5.21l-3.49,0c.16,1.71.42,4.22.72,6.67,0,0,0,0,0,.09a.69.69,0,0,1-.53.72.65.65,0,0,1-.7-.63c-.32-2.53-.58-5.11-.74-6.84l-4,.05c.3,3.11.9,8.83,1.54,12.17Zm4.39-5.15c.62,3.13.45,3.57-1.42,4C352.88,10.09,353.27,9,353.81,7.51ZM299.64,13.2A30.57,30.57,0,0,0,305.42,23l8.25-.1a29.75,29.75,0,0,1-5.26-9.5c-.44-2.26-.84-5.47-1.16-8.31l-.67-.4a2.91,2.91,0,0,0,.52-1c0-.29-.05-.54-.08-.81-.41-.64-1.6-.84-1.76-1.64a5.9,5.9,0,0,1,.55-.37l-2.48,0c.16,1.71.41,4.22.71,6.67a.22.22,0,0,1,0,.08.7.7,0,0,1-.53.73.66.66,0,0,1-.7-.63c-.31-2.53-.57-5.11-.74-6.84l-4,.05C298.41,4.14,299,9.86,299.64,13.2Zm71.89,25.57c0-.81,0-1.6,0-2.38h-.88A2.88,2.88,0,0,0,371.53,38.77Zm-46.66,6.42a5.85,5.85,0,0,0-5.33-1.91c-.56.52-1.08,1-1.57,1.56h.45a2.09,2.09,0,0,1-.38.89l7.24-.09.07-.08c-.14-.11-.28-.23-.43-.33l0,0A.25.25,0,0,1,324.87,45.19ZM277,1.27h-.54l.57.3C277,1.48,277,1.36,277,1.27Zm-2.86,0h-.63c0,.14,0,.33,0,.49A.88.88,0,0,0,274.1,1.3Zm101.83,37-1.4-1.52c.05-.14.11-.27.16-.41h-1.63C373.88,38.35,374.76,39,375.93,38.29Zm.08,1.62-2.49,2.72a3.82,3.82,0,0,1,.19.71l-1.51-.65c-.34.82-.69,1.63-1,2.44l3.56,0,.06-.22c-2.2-.84-.3-1.59.37-2.36,0,.19.05.39.07.59C375.47,42.07,375.74,41,376,39.91ZM29.7,4c-.08.23-.17.47-.26.7.09.9.19,1.92.32,3a2.26,2.26,0,0,0,1,.08,26,26,0,0,1-.19-3.68l1.28.15c0-.1-.05-.2-.07-.3Zm2.81,15.87c.26.49.55,1,.87,1.55a4.41,4.41,0,0,0-.26-.72A2.14,2.14,0,0,0,32.51,19.89Zm-9.73,6.3h.72c-.1-.12-.19-.26-.29-.39ZM38.57,8.58l-.24,0,.29.49C38.6,8.89,38.58,8.73,38.57,8.58Zm-5-2.08c-.05-.5-.1-1-.14-1.43L32.3,5,31.22,6.48c.09.36.19.74.28,1.11A4.91,4.91,0,0,0,33,6.41a5.81,5.81,0,0,1-1.27,2.05l.21.83-.4.13a2.73,2.73,0,0,1-.34-.52,2.64,2.64,0,0,1-1.26.43c0,.3.07.6.11.89a4,4,0,0,1,.79-.34,6.71,6.71,0,0,0-.65,1.18c.43,1,.39,1.44.19,1.7.12.87.24,1.7.37,2.46.63.55,1.17,1.36,2.12,1.07a1,1,0,0,1,.26.52l.34-.25a2,2,0,0,1,.88-1.11l-2.78-2.91c.73-1.11,1.82-1.19,3-.39l.33-.06c.36-1.2.68-2.27,1-3.29l-.26-.14-.56.15c.07.6.14,1.22.22,1.82v.09a.69.69,0,0,1-.52.73.66.66,0,0,1-.7-.63c-.1-.79-.19-1.59-.28-2.37-.2-.63-.34-1.28-.48-1.85Zm4.91,1.57,0,0h0ZM24.35,25.25l-.15.41c.24.13.5.25.74.39C24.73,25.78,24.55,25.52,24.35,25.25ZM13.6,48.67l-.37.34.25.1,0,0h.64a1.09,1.09,0,0,1,0-.18Zm-3-5.14.52-.73c-1.36-.22-2.72-.44-4.07-.69l0,0,0,.07c-.16.26-.32.52-.49.78Zm8.53-12.92-.46-.42a3.12,3.12,0,0,1-1.77,1.34.73.73,0,0,0-.26.16c0,.56.05,1,.07,1.31l0,0c.07.09.13.19.19.28C17.7,32.35,18.43,31.49,19.12,30.61Zm-12,4.77a1.73,1.73,0,0,0-.45-.83l-.09-.08L6.07,35l.45,1-1.35.6H6.52a4.51,4.51,0,0,0,.29-.7A2.14,2.14,0,0,1,7.07,35.38Zm6.12-1.07c.15.16.31.32.46.51l.41-.18-.74-.41-.09.07ZM12.44,41,11,40.44h-.1l1.46.65A.5.5,0,0,1,12.44,41Zm21-36.49c0-.16,0-.34,0-.49h-.94l-.51.31ZM76.23,66.09c0,.19,0,.38,0,.57l.57-.27Zm2.14,6.24a6.52,6.52,0,0,0-.13-.69,6.73,6.73,0,0,1,1.12.13c0-.77.09-1.66.15-2.66-.29-.11-.61-.18-.91-.28l-.1,1.24c-2.53-.35-.78-1.39-.32-2.36l-2-.36c-.14,1.93-.24,3.75-.31,5Zm22.18-1.63c0,.5-.06,1-.08,1.38l2,0a2.39,2.39,0,0,0-.07-.66C102.31,71.08,101.36,71,100.55,70.7ZM91.4,67.16c.75.74.71,2,2.6,2a1.43,1.43,0,0,1,.65.19c0-.41.06-.83.09-1.27a6.29,6.29,0,0,0-1.37.11c-.51-.51-1-1-1.44-1.47Zm-1.62-2.57c-.43.08-1,.11-1.71.24,0,.67,0,1.76,0,2.85l.38.09.77-1.61.41.11C89.69,65.71,89.73,65.15,89.78,64.59Zm-14.57.16-.23.13h.14A.55.55,0,0,1,75.21,64.75Zm-9.33,7.73,2,0a3.51,3.51,0,0,0-1.86-3.17C66,70.51,65.92,71.62,65.88,72.48ZM69,71.39c0,.35,0,.7-.07,1h.49c0-.31,0-.67.06-1Zm5.87-3c.07-1,.14-2,.22-3-.64-.36-1.28-.71-1.92-1-.26-.13-.73.06-1.1.1.17.26.27.61.52.75a8.36,8.36,0,0,0,1.45.44l-1,.51a11.84,11.84,0,0,1,1.85,2.16S74.81,68.4,74.82,68.43Zm-3.92-.72,1.18.14A5.65,5.65,0,0,0,71,66.79Zm40.79,4.14-.31.11h.45ZM4.32,49l.22,0a.31.31,0,0,0-.14-.19Zm9.09,4.91s0-.08-.05-.13a.44.44,0,0,1-.08.11l.11,0Zm.44,1.94.56,0c-.06-.29-.12-.53-.17-.75C14.1,55.4,14,55.64,13.85,55.88Zm-9.3-6.77v0h0S4.55,49.1,4.55,49.11Zm4.56,2.54c-.26.91-1.32,1.49-2.09,2.23.7,0,1.29,0,1.45-.39A3.44,3.44,0,0,1,10,51.84c0-.08,0-.15,0-.23-.25-.16-.48-.33-.72-.5A4.12,4.12,0,0,0,9.11,51.65Zm1.63,3.55.57-.15a.37.37,0,0,1-.07-.14,2.21,2.21,0,0,1-.06-.34l-.37-.23c-.05.17-.11.33-.17.51A2.3,2.3,0,0,0,10.74,55.2Zm.92-3.34c-.15.43-.3.88-.45,1.33l.57.2a.88.88,0,0,1,.3-.07,1.73,1.73,0,0,0,.95-.41l0-.06.06,0A3.2,3.2,0,0,0,14,51.35c-.48.45-1.21.27-2,0C11.91,51.49,11.79,51.69,11.66,51.86Zm-2.84,3c-.1.14-.19.29-.28.43h0a5.07,5.07,0,0,0,.54-.8A2.37,2.37,0,0,0,8.82,54.84ZM2.68,48.49a3.52,3.52,0,0,0,.39.18c0-.23.07-.49.1-.71C3,48.13,2.84,48.31,2.68,48.49Zm.82-2.05a4.68,4.68,0,0,0-.39-.38l-.24.47.38.93c0-.28.08-.57.11-.82A2.43,2.43,0,0,0,3.5,46.44ZM.82,44.75l0,.15a.65.65,0,0,1,0-.13ZM21.63,62.43c0,.17,0,.34-.05.51.25.13.49.28.73.41.05-.22.09-.41.14-.58ZM28,65l-4.44-1.81-.45.57.92.52.5-.42.26.46-.18.29c.29.16.59.31.87.49,0,0,.05.06.08.09a.56.56,0,0,1,.44-.15.71.71,0,0,1,.56.71v.09c0,.48-.08,1-.11,1.44Zm-6.23-7.94c-.54-.22-1.07-.6-1.63-.87a4.3,4.3,0,0,0,1.42,1.39Zm-4.68.2-.43.43c0,.08.05.17.08.25a5.31,5.31,0,0,0,4.13,1.19C20,57.55,18.48,57.45,17.06,57.28Zm-.44-5.43.95-.79-.45-.28a32,32,0,0,0-2,2.84l1.06.38c.3-.32.61-.75,1-1.16-.1.54-.19,1-.26,1.42l2.22.8Zm-2.73,1.29,0,0h0ZM5.67,46.85,4.8,48.24l-.24.85h0l.23.16h.45l1-1.08A6.34,6.34,0,0,1,5.67,46.85Zm4.1-6,.09,0s0,0,0-.11A.54.54,0,0,0,9.77,40.89ZM5.4,43.16A1.32,1.32,0,0,1,4.65,43l-.31.61a4,4,0,0,1,.74.47c.17-.24.33-.49.49-.73Zm2.66,3.18L6,43.88l-.47.73,1.2.52-.42.68a4.2,4.2,0,0,1,1.44.85ZM.25,41.22v.17a1.78,1.78,0,0,1,.47,0c.24.07.48.16.72.25.43-.76.75-.89.93-.5a3.16,3.16,0,0,1,.57-.66h0l-.44,0v0l-1.95,0a2.44,2.44,0,0,1-.16.5A1.83,1.83,0,0,1,.25,41.22Zm9.26-.29c0-.16,0-.32,0-.47H8.34c-.21.25-.41.5-.6.76ZM92.66,11.09a11.07,11.07,0,0,0,.64,1.67c.2-1.21.32-1.93.43-2.66l.06,0c-.08-.72-.17-1.44-.25-2.15a3,3,0,0,0-1,1C92.25,9.41,92.54,10.37,92.66,11.09Zm22.27-1.37s0,.06,0,.09a.71.71,0,0,1-.35.61c2.31.28,2.36.1,2.45-1.94l-2.27-.12C114.82,8.82,114.87,9.27,114.93,9.72ZM36.88,25.24a.14.14,0,0,0,0,.06h.06ZM117,8.46v0h0ZM33.23,25.1l.42.76-.16.21h1.08c.06-.11.13-.21.19-.31a35.13,35.13,0,0,1-2.42-3.53c0,.12.09.25.14.37-.36.4-.71.79-1,1.15l1.46,1c-.31.27-.57.6-.65.55-.67-.42-1.31-.91-2-1.38,0,.14,0,.27.05.41a15.22,15.22,0,0,1-2.2.28c-.81,0-1.56,0-1.84,1.1h0l1.42-1,.18.5-.92.92,5.53-.06A3,3,0,0,0,33.23,25.1ZM118.16,7.4l-.11-.19-1,1.27h0l1.51,2.35C118.42,9.69,118.28,8.52,118.16,7.4Zm-4.64.9-.58,0c.08.57.1,1.65.92,2a.65.65,0,0,1-.15-.36C113.64,9.37,113.58,8.83,113.52,8.3ZM20.85,49.06l2,0A2,2,0,0,0,20.85,49.06Zm3.35-8.77H24l.21.14Zm-4-8.72h0l.09,1.16h0C20.28,32.34,20.24,32,20.21,31.57Zm.27,4.9h.12a.49.49,0,0,1,0-.12Zm-2.34-2.79a4.71,4.71,0,0,1,2.3.79l-.15-1.74-1.66.51-.12-1.19c-.29.76-.57,1.53-.85,2.27l.73,1.07c-.25.18-.49.37-.73.56l-.35-.67c-.16.42-.31.84-.46,1.23l2.85,0,.54-.64ZM123.54,8.77c-.26-2.18-.47-4.32-.62-5.81l-4,0c.12,1.27.29,3,.5,4.78A22.3,22.3,0,0,0,120.76,10c.43.6.95.51,1.28-.35a8.46,8.46,0,0,1,1-1.53c.06.21.11.42.17.63ZM35.08,6c.28,1.45.42,1.94,1.07,2.07.13-.43.26-.87.39-1.28A11.25,11.25,0,0,0,38.39,7c-.12-1.15-.23-2.2-.3-3h-.42l-.33.9c-.16-.29-.31-.58-.47-.89L34.59,4c.06.6.13,1.33.21,2.1ZM74.76,7l2,.9c-.07-.65-.1-1-.17-1.63L78.36,8c-.18-1.6-.33-3.07-.44-4.22a2.77,2.77,0,0,1-.1-.26l-3.42,0C74.49,4.48,74.62,5.71,74.76,7ZM383.14,68.92c0-.08,0-.18,0-.27s-.14,0-.15,0l-.06.26ZM79.77,3.45h-.35a1.53,1.53,0,0,0,.34.16A.86.86,0,0,1,79.77,3.45Zm310,65.4,0-1.23a12.2,12.2,0,0,1-.27,1.23Zm-275-61.33a2.49,2.49,0,0,0,1.27-.27c.43-.21.7-.8,1.11-1.11a6.4,6.4,0,0,1,.92-.52c-.11-1-.2-1.87-.27-2.6l-3.49,0C114.32,4.25,114.49,5.84,114.67,7.52Zm-91,43-.3.55,1.67.15c.17-.24.31-.48.49-.72ZM99.39,15.76C98.7,12.22,98.1,6.35,97.8,3.24L96,3.26c.36.23.73.48,1.1.75l-2,1.1c-.1-.46-.18-.78-.25-1.11l-.37.33c.34.44.61,1.06,1,1.29a4.07,4.07,0,0,1,2.48,2.86c.07.32-.55,1.15-.61,1.11a10.45,10.45,0,0,1-1.66-1.18c-.24-.2-.4-.61-.64-.69a2.06,2.06,0,0,0-.42,0c.08.75.17,1.51.26,2.27A.28.28,0,0,1,95,10a.67.67,0,0,1-.53.72.25.25,0,0,1-.12,0c.2,1.16.17,2.55,1.77,2.58-1.41,1.25-2.61.07-3.81-.08-1.6-.21-1.22-2.49-2.21-3.35l-.3.23a1.49,1.49,0,0,0,0,.21c.15.42.31.85.53,1.48L90,11.73c.19,1.4.39,2.72.59,3.78a30.35,30.35,0,0,0,5.78,9.84l8.25-.09A29.62,29.62,0,0,1,99.39,15.76ZM374.69,69v-.08l-.07.08ZM83.85,10.25c-.13-1-.25-2.09-.35-3.09C82.06,7,81,5.92,79.71,5.37c-.15-.07-.27-.15-.41-.22.33,3.21.84,7.68,1.37,10.48a30.25,30.25,0,0,0,5.78,9.83l8.25-.09a29.9,29.9,0,0,1-5.27-9.5c-.26-1.37-.51-3.09-.74-4.87-.66-.56-1.3-1.15-2-1.72a18.85,18.85,0,0,0-2-1.94c.1.89.2,1.81.31,2.73a.25.25,0,0,1,0,.08.7.7,0,0,1-.53.73A.66.66,0,0,1,83.85,10.25Zm-2.76-.92,1.36-1.71c-.07,1.21-.12,2-.19,3C81.79,10.13,81.44,9.73,81.09,9.33Zm4.84,10.86-2.09-2.13.27-.32C86.22,18.64,86.54,19,85.93,20.19Zm2.39,50.62.15-.07L85.94,69.6c-.07,1-.12,1.93-.15,2.65l3.49,0c0-.22,0-.48,0-.74ZM179.61,2.75a2.61,2.61,0,0,1-.69-.43h-.26c0,.19,0,.41.06.63A2.19,2.19,0,0,0,179.61,2.75Zm-98,68.1,0,0s0,0,0,0L80.7,70c0,.87-.1,1.68-.13,2.33l4,0v0a2.6,2.6,0,0,1-2.9-1.34H81.6Zm88-60.4a1.28,1.28,0,0,0,1.33.57,5.86,5.86,0,0,0,1.34-.34c1.73-.47,2.51.2,2.2,2.11-.3-.39-.55-.69-.83-1-.11.37-.19.66-.27.95l-1.63-.9c.27,1.36.48,2.42.7,3.51a5.12,5.12,0,0,1-2.24-1c0,.08,0,.17.05.25h0s0,0,0,.06a17.84,17.84,0,0,0,.87,2.21l1-.67c1.2,1.32,1.24,1.86.06,2.84a34.47,34.47,0,0,0,3.8,5.46l8.26-.09-.06-.07h0A30,30,0,0,1,179,14.87c-.53-2.81-1-7-1.35-10.19l-1.52-2.33-2.21,0c.16,1.72.42,4.22.72,6.68v.08a.68.68,0,0,1-.53.72.65.65,0,0,1-.69-.59c-.31-2.52-.56-5.08-.73-6.8h0a.17.17,0,0,1,0-.07l-4,0C168.9,4.46,169.23,7.59,169.6,10.45Zm6.14,5.42-2.85.46.73-2.13Zm2.4-1-2.34-4.74C177.26,10.48,178.27,12.44,178.14,14.82ZM81.6,69.67a2.67,2.67,0,0,1,0,1.16l0,0,0,0,2.93.78c0-.83.1-1.8.16-2.88a7.52,7.52,0,0,0-2,.2l.5-1.4C81.86,68,81,68.36,81.6,69.67Zm14.5-3.28a2.91,2.91,0,0,0,.87-1l-.48-.62c-.11.2-.21.42-.32.61S96.12,66.06,96.1,66.39ZM74.49,70l-1.28-.41c-.34-.11-.68-.22-1-.36l-1.36-.53c0,.27,0,.56,0,.82a8.87,8.87,0,0,1,3.07,2.84h.74c0-.85.11-2,.18-3.22C74.68,69.45,74.56,69.75,74.49,70Zm16.58-6c0,.43-.07.86-.11,1.3.91.35,1.75.65,2.5,1a3.55,3.55,0,0,0,1.37.38c0-.2,0-.42,0-.63a1.23,1.23,0,0,1-.55-.74A2.51,2.51,0,0,0,91.07,64ZM96,68.23c0,.71-.09,1.38-.13,2a9.07,9.07,0,0,0,.73.57l1.7-1.18A3.65,3.65,0,0,0,96,68.23Zm-5.22.35h0c0,.45-.06.9-.08,1.32.29.13.58.27.88.39a8.65,8.65,0,0,0,3,.7v0A37.36,37.36,0,0,0,90.75,68.58Zm-1.88.53a1.94,1.94,0,0,1-1.93-1.8,13.26,13.26,0,0,0-.7-2.13c-.12,1.46-.21,2.93-.29,4.24Zm.09,0,0,0h0l.07,0Zm.51-.21-.51.21.48.23ZM73.72,63.3l1.2-.62s0,0,0,0ZM31.85,56.61c-.34-.52-.66-1-1-1.56l-.87.47c.5.66,1,1.31,1.5,2C31.59,57.23,31.71,56.93,31.85,56.61ZM27.2,53.75c0-.1,0-.21.05-.32l-2-.23c-.35.54-.67,1.07-.95,1.57l5.24,2.93.38-.45c-.28-.74-.12-1.61-1.73-1.67-.84,0-1.65-.86-2.79-1.51Zm55.4,7.3s-.06-.09-.19-.28c-.24,0-.64,0-.94-.05-.28,2.21-.51,5.12-.67,7.68L82.07,66a6.08,6.08,0,0,1,2.83.49c0-.49.07-1,.11-1.48a.63.63,0,0,1,.67-.64.64.64,0,0,1,.5.52l.87-.41c-.22-.22-.33-.43-.46-.45C84.47,63.83,81.12,64.87,82.6,61.05Zm-54-10.63c-1,.34-1,.83-.51,2.19.84-.24,2.13-.91,2.49-.64.82.62,2,1,2.83,1.59a32.75,32.75,0,0,1,2.09-3.22Zm-8,4.57c.46-.57.8-1,1.28-1.62l1.36.76c.24-.44.52-.89.8-1.35l-.63-1.72C20.72,52.16,19.81,53.31,20.55,55Zm6.54-3.63L26.83,51l-.24.33Zm-3.73-.3h0v0h0ZM77.92,61.13l-3,1.55c.32.57.65,1.13,1,1.69l-.24.13h.07a.64.64,0,0,1,.49.52l3.55.37c.1-1.19.2-2.38.32-3.49C78.72,62.77,78.69,60.76,77.92,61.13Zm-6.47.26c-.07.61-.14,1.26-.2,1.93a2.67,2.67,0,0,1,2.29-1.21A10.48,10.48,0,0,1,71.45,61.39ZM36.19,60.25l1.32-.87a15.68,15.68,0,0,1-2.37-.17,4.37,4.37,0,0,1-2-.91c-.13-.15-.26-.32-.38-.47-.17.41-.32.78-.44,1.1.27.56.53,1.12.81,1.68A2.77,2.77,0,0,1,32,60l-.12.41c-.09.6-.17,1.31-.25,2.06,1.62.44,3.2.86,4.76,1.3a.68.68,0,0,1,.37.36,9.21,9.21,0,0,0,3.11,3.63c.11-1.58.24-3.25.4-4.79C38.43,62.63,36.76,62.24,36.19,60.25Z"/></g></g></svg>