<svg xmlns="http://www.w3.org/2000/svg" viewBox="0 0 402.42 39.16"><defs><style>.cls-1{fill:#e42313;}</style></defs><title>creditoElektra2</title><g id="Capa_2" data-name="Capa 2"><g id="Capa_1-2" data-name="Capa 1"><path class="cls-1" d="M0,24.39V24.3A14.68,14.68,0,0,1,15.08,9.45c5.84,0,9.6,2.45,12.14,6l-6,4.61c-1.63-2-3.51-3.35-6.25-3.35-4,0-6.83,3.39-6.83,7.55v.08c0,4.29,2.82,7.64,6.83,7.64,3,0,4.74-1.39,6.46-3.47l6,4.24a14.42,14.42,0,0,1-12.67,6.45A14.51,14.51,0,0,1,0,24.39"/><path class="cls-1" d="M44,23.73c2.69,0,4.25-1.3,4.25-3.38v-.09c0-2.24-1.64-3.38-4.29-3.38h-5.2v6.85ZM30.82,10H44.34c4.38,0,7.4,1.14,9.32,3.1a8.83,8.83,0,0,1,2.53,6.65v.08a9,9,0,0,1-5.88,8.78l6.82,10H48l-5.76-8.65H38.74v8.65H30.82Z"/><path class="cls-1" d="M73.16,1.45l7.4,2.24-6,4.37H68.75ZM60.2,10h23v6.73H68.05v4.33H81.78v6.24H68.05v4.54H83.42v6.73H60.2Z"/><path class="cls-1" d="M98.66,31.57c4.74,0,7.89-2.61,7.89-7.22v-.09c0-4.57-3.15-7.22-7.89-7.22H95.43V31.57ZM87.51,10h11c10.22,0,16.14,5.88,16.14,14.12v.08c0,8.25-6,14.37-16.3,14.37H87.51Z"/><rect class="cls-1" x="118.94" y="10.02" width="7.97" height="28.57"/><polygon class="cls-1" points="139.13 16.96 130.54 16.96 130.54 10.02 155.64 10.02 155.64 16.96 147.05 16.96 147.05 38.59 139.13 38.59 139.13 16.96"/><path class="cls-1" d="M179.67,24.39V24.3a7.43,7.43,0,0,0-7.36-7.71c-4.33,0-7.23,3.51-7.23,7.63v.08A7.42,7.42,0,0,0,172.39,32c4.38,0,7.28-3.51,7.28-7.63m-22.72,0V24.3c0-8.2,6.62-14.85,15.44-14.85S187.76,16,187.76,24.22v.08c0,8.21-6.62,14.86-15.45,14.86S157,32.59,157,24.39"/><path class="cls-1" d="M208.74,4.52l4.17,4.67a6,6,0,0,1,5.33-1.29,5.81,5.81,0,0,1,5.07,5.68c.12,2.22-1.4,4.43-2,5.25-6.14-1.66-9.89,1.22-12.35,5.59a11.38,11.38,0,0,0-.59,9.19A21.63,21.63,0,0,0,215.7,38l2-5.94a6.05,6.05,0,0,1-3.8-4c-1.17-3.6.35-5.9,2.38-7.23,1.85-1.2,4.49-1,5.54-.86,1.63,6.16,6,8,11,7.93a11.39,11.39,0,0,0,8.26-4.08,21.61,21.61,0,0,0,.13-8.58l-6.13,1.26a6,6,0,0,1-1.53,5.27c-2.53,2.82-5.29,2.64-7.45,1.54-2-1-3.13-3.4-3.53-4.37,4.52-4.5,3.91-9.2,1.35-13.52A11.4,11.4,0,0,0,216.24.35a21.43,21.43,0,0,0-7.5,4.17"/><path class="cls-1" d="M216.11,12.81a7.22,7.22,0,0,0-4.79-2.94c-4.6-.6-6.44,1.76-7.23,3a9,9,0,0,0-1,3.86l-.92,1.06-2.07,2.37,3.69,2.05,3-3.22c0-8.58,9.32-6.22,9.32-6.22"/><path class="cls-1" d="M219.22,27.45a7.23,7.23,0,0,0-.15,5.62c1.79,4.29,4.75,4.7,6.25,4.76a9.05,9.05,0,0,0,3.82-1.1l1.38.27,3.09.61-.08-4.23-4.27-1c-7.44,4.26-10-5-10-5"/><path class="cls-1" d="M229.54,6.36c7.41,4.32.73,11.18.73,11.18a7.19,7.19,0,0,0,4.93-2.67c2.82-3.69,1.69-6.46,1-7.79a8.86,8.86,0,0,0-2.86-2.76L232.86,3l-1-3-3.62,2.18Z"/><path class="cls-1" d="M278,2.92l5.9-2.83-.08,30.21c0,3.11.92,5,2.77,5.56a4.83,4.83,0,0,1-4.68,2.58q-4,0-4-5.57Z"/><path class="cls-1" d="M294.26,23l12.41,0q-.6-5.53-6.12-5.55c-3.37,0-5.46,1.83-6.29,5.52m17.82,4.47-18,0a6.37,6.37,0,0,0,2.06,4.69,7.49,7.49,0,0,0,5.14,1.68,6.69,6.69,0,0,0,2.27-.18c1-.23,2.26-.84,3.65-.32a3.75,3.75,0,0,1,1.69,1.61,10,10,0,0,1,.8,1.32q-3.12,2.52-9.3,2.5-5.78,0-9.13-3.41t-3.34-9.44a13.1,13.1,0,0,1,3.72-9.65,12.93,12.93,0,0,1,17.68-.37,11.23,11.23,0,0,1,3.31,8.34,16.51,16.51,0,0,1-.51,3.27"/><path class="cls-1" d="M255.56,22.91,268,23c-.4-3.7-2.44-5.54-6.12-5.56-3.36,0-5.46,1.84-6.28,5.52m17.82,4.48-18-.05a6.43,6.43,0,0,0,2.06,4.7,7.6,7.6,0,0,0,5.14,1.68,6.8,6.8,0,0,0,2.28-.19c1-.23,2.26-.84,3.64-.31a3.7,3.7,0,0,1,1.69,1.61,9.09,9.09,0,0,1,.8,1.31q-3.12,2.52-9.29,2.5-5.79,0-9.14-3.4t-3.33-9.45a13.05,13.05,0,0,1,3.72-9.64,12.95,12.95,0,0,1,17.68-.38,11.2,11.2,0,0,1,3.3,8.35,16.53,16.53,0,0,1-.5,3.27"/><path class="cls-1" d="M333.93,38.42a2.5,2.5,0,0,1-2-1.07L325.2,27l-2.84,3,0,8.44-5.9,0,.1-35.27,5.9-2.7-.06,22.44,8.45-9.66,7.1,0-8.56,9.54,10.24,15.69Z"/><path class="cls-1" d="M345.78,17.92l-7.15,0,4.24-4.73h2.92l0-5.13,5.9-2.16,0,7.31h6.94l0,4.74-6.93,0,0,11.05a6.44,6.44,0,0,0,.84,3.83,3.51,3.51,0,0,0,3,1.13,7.33,7.33,0,0,0,4-1.15v5.42a18.66,18.66,0,0,1-5.86.69,7.62,7.62,0,0,1-5.79-2.15,8.43,8.43,0,0,1-2-6.07Z"/><path class="cls-1" d="M379.52,15c-.93,1.6-.32,4.09-.32,4.09a7.23,7.23,0,0,0-4.14-1.33A5.84,5.84,0,0,0,371,19.65a6.75,6.75,0,0,0-1.6,4.54l0,14.37-5.9,0,.07-25.22h5.9v2.31a8.26,8.26,0,0,1,6.45-2.87,11.37,11.37,0,0,1,4.7.91,3.94,3.94,0,0,0-1,1.29"/><path class="cls-1" d="M394.54,29c0,3.54-1.79,5.3-5.32,5.29q-3.95,0-3.93-3.4c0-3.05,2.34-4.57,7-4.56a13.2,13.2,0,0,1,2.26.32Zm5.87,1.81V25.44q0-7.34-2.66-10c-1.79-1.76-3.64-2.67-7.5-2.68a16.86,16.86,0,0,0-4.43.48c-4.27,1.23-2.53,5.56-2.53,5.56h0l.15-.06.81-.34a13.68,13.68,0,0,1,4.61-.69q5.64,0,5.63,4.47a10.13,10.13,0,0,0-2.45-.36c-4,0-7.16.8-9.36,2.44a8.1,8.1,0,0,0-3.31,6.85,7.26,7.26,0,0,0,2.32,5.79A9.4,9.4,0,0,0,388.12,39a10.61,10.61,0,0,0,4.16-.82A5.78,5.78,0,0,0,395.09,36a4.7,4.7,0,0,0,1.36,2,3.43,3.43,0,0,0,2.28,1,4.61,4.61,0,0,0,2.06-.29,3.3,3.3,0,0,0,1.63-1.56q-2-1.31-2-6.34"/></g></g></svg>