<?xml version="1.0" encoding="utf-8"?>
<!-- Generator: Adobe Illustrator 22.1.0, SVG Export Plug-In . SVG Version: 6.00 Build 0)  -->
<svg version="1.1" id="Layer_1" xmlns="http://www.w3.org/2000/svg" xmlns:xlink="http://www.w3.org/1999/xlink" x="0px" y="0px"
	 viewBox="0 0 344.4 70.3" style="enable-background:new 0 0 344.4 70.3;" xml:space="preserve">
<style type="text/css">
	.st0{fill:#002A58;}
</style>
<g id="Capa_2">
	<g id="Capa_1-2">
		<path class="st0" d="M36,0C32,0,18,0.3,6,7.5H5.9c-4.1,2.6-6.4,7.3-5.8,12.2c0,0.3,3.5,27.7,28.8,48c2,1.7,4.5,2.6,7.1,2.6
			c2.6,0,5.2-1,7.2-2.7C68.4,47.4,72,19.9,72,19.6c0.5-4.8-1.7-9.5-5.8-12.1h-0.1C54,0.3,40,0,36,0 M36,4.8c3.7,0,16.6,0.3,27.6,6.8
			c2.5,1.6,3.9,4.5,3.6,7.5c0,0.3-3.5,25.9-27,44.8c-1.2,1-2.7,1.6-4.3,1.6c-1.5-0.1-3-0.6-4.2-1.6c-3.7-3-7.2-6.3-10.3-10l12.9-3
			c7.3-1.7,8.1-10.5,8.1-10.5l-8.1,1.9c-1.3,2.4-3.2,5-6.9,5.8l-9,2.1c-1.9-2.5-3.6-5.1-5.1-7.8l21.7-5.1c0.4-0.1,0.7,0.2,0.8,0.6
			c0,0.1,0,0.2,0,0.3l-0.4,1.4l6.8-1.6c3.2-0.8,5.9-3.1,7.1-6.2c0.7-1.5,1.2-3.2,1.4-4.8l-14.8,3.5c-1.4,1.9-3.4,3.2-5.7,3.7
			l-19,4.5C10,35.8,8.7,32.9,7.7,30l30.7-7.3c0.3-0.1,0.6,0.2,0.7,0.5c0,0.1,0,0.2,0,0.2c-0.3,1.5-0.7,2.9-1.3,4.3l12.7-3
			c3.5-0.9,6.3-3.4,7.7-6.7c0.7-1.6,1.2-3.4,1.5-5.1L6.3,25.5c-0.6-2.1-1.1-4.2-1.5-6.4c-0.3-3,1.1-5.9,3.6-7.5
			C19.4,5.1,32.4,4.7,36,4.8"/>
		<path class="st0" d="M80.8,55.8h-8.7l27.1-41.6c0.5-0.8,1.5-1.3,2.4-1.3h9.9L85.3,53.4C84.3,54.9,82.6,55.8,80.8,55.8"/>
		<path class="st0" d="M113.7,55.8H102l22.7-34.5h-13l4.4-7.1c0.5-0.8,1.4-1.3,2.3-1.3h37.1l-4.2,6.9c-0.6,1-1.7,1.6-2.9,1.6h-12
			L113.7,55.8z"/>
		<path class="st0" d="M168.2,55.8h-11l2.4-8.7H144l-7.9,7.5c-0.8,0.7-1.8,1.1-2.8,1.1h-11.8l44.8-42.2c0.5-0.5,1.2-0.7,1.9-0.8
			h11.5L168.2,55.8z M161,41.3l4.4-15.6l-15.3,15.6L161,41.3z"/>
		<path class="st0" d="M318.6,55.8h-11.4l2.4-8.7h-15.1l-8.2,7.8c-0.5,0.5-1.3,0.8-2,0.8H272l44.1-41.5c1-0.9,2.3-1.4,3.6-1.4h10.5
			L318.6,55.8z M311,41.3l4.5-15.7l-14.9,15.6L311,41.3z"/>
		<path class="st0" d="M210.9,47.2l-4.4,7.2c-0.5,0.9-1.5,1.4-2.5,1.4h-31.5l27.9-42.9h11.8l-22.6,34.3L210.9,47.2z"/>
		<path class="st0" d="M220.4,55.8h-10l27.1-41.7c0.5-0.8,1.3-1.2,2.2-1.2h10.1l-27,41.6C222.3,55.3,221.4,55.8,220.4,55.8"/>
		<path class="st0" d="M271.2,55.8h-9.5c-1.4,0-2.6-1-2.8-2.4L256,34.8l-14.3,21H230l27.1-41.7c0.5-0.8,1.4-1.3,2.3-1.3h10.2
			l-12.7,20.5l26.9-20.5h13.7l-29.6,22.5L271.2,55.8z"/>
		<path class="st0" d="M337.3,41.5c1.2,0,2.4,0.3,3.5,0.9c1.1,0.6,2,1.5,2.6,2.6c1.3,2.2,1.3,4.9,0,7.2c-0.6,1.1-1.5,2-2.6,2.6
			c-1.1,0.6-2.3,0.9-3.6,0.9c-1.2,0-2.5-0.3-3.5-0.9c-1.1-0.6-2-1.5-2.6-2.6c-1.3-2.2-1.3-4.9,0-7.2c0.6-1.1,1.5-2,2.6-2.6
			C334.8,41.9,336,41.6,337.3,41.5 M337.2,43c-1,0-2,0.3-2.8,0.7c-0.9,0.5-1.6,1.2-2.1,2.1c-0.5,0.9-0.8,1.9-0.8,2.9
			c0,1,0.3,2,0.8,2.9c0.5,0.9,1.2,1.6,2.1,2.1c1.8,1,3.9,1,5.7,0c0.9-0.5,1.6-1.2,2.1-2.1c1-1.8,1-4,0-5.8c-0.5-0.9-1.2-1.6-2.1-2.1
			C339.2,43.2,338.3,43,337.2,43 M334,52.5v-7.6h1.5c1.4,0,2.3,0,2.4,0c0.4,0,0.8,0.1,1.2,0.3c0.3,0.2,0.6,0.4,0.8,0.8
			c0.2,0.3,0.3,0.7,0.3,1.1c0,0.5-0.2,1-0.5,1.4c-0.4,0.4-0.9,0.7-1.5,0.7c0.2,0.1,0.4,0.2,0.5,0.3c0.2,0.2,0.4,0.4,0.5,0.6l0.6,0.9
			l0.9,1.5h-1.9l-0.6-1.2c-0.3-0.6-0.6-1.1-1.1-1.6c-0.3-0.2-0.7-0.4-1.1-0.3h-0.4v3.1L334,52.5z M335.6,48.2h0.6
			c0.6,0,1.1,0,1.7-0.1c0.2-0.1,0.4-0.2,0.5-0.4c0.1-0.2,0.2-0.4,0.2-0.6c0-0.2-0.1-0.4-0.2-0.6c-0.1-0.2-0.3-0.3-0.5-0.4
			c-0.5-0.1-1.1-0.1-1.7-0.1h-0.6V48.2z"/>
	</g>
</g>
</svg>
