<?xml version="1.0" encoding="utf-8"?>
<!-- Generator: Adobe Illustrator 23.0.4, SVG Export Plug-In . SVG Version: 6.00 Build 0)  -->
<svg version="1.1" xmlns="http://www.w3.org/2000/svg" xmlns:xlink="http://www.w3.org/1999/xlink" x="0px" y="0px"
	 viewBox="0 0 50 50" style="enable-background:new 0 0 50 50;" xml:space="preserve">
<style type="text/css">
	.st0{display:none;}
	.st1{display:inline;}
	.st2{fill:#008917;}
	.st3{fill:none;stroke:#000000;stroke-width:2;stroke-miterlimit:10;}
	.st4{fill:#F9D003;}
	.st5{fill:#F9D003;stroke:#000000;stroke-width:2;stroke-miterlimit:10;}
	.st6{display:inline;fill:#999999;}
	.st7{fill:none;}
	.st8{fill:#E1AF4E;}
	.st9{fill:url(#SVGID_1_);}
	.st10{fill:url(#SVGID_2_);}
	.st11{fill:url(#SVGID_3_);}
	.st12{fill:#02225B;}
</style>
<g id="Capa_1" class="st0">
	<g class="st1">
		<g>
			<circle class="st2" cx="25" cy="25" r="25"/>
		</g>
		<circle cx="37.5" cy="16.5" r="3.5"/>
		<circle cx="12.5" cy="16.5" r="3.5"/>
		<path class="st3" d="M41,27.5c0,8.8-7.2,16-16,16s-16-7.2-16-16H41z"/>
	</g>
</g>
<g id="Capa_2" class="st0">
	<g class="st1">
		<g>
			<g>
				<circle class="st4" cx="25" cy="25" r="25"/>
			</g>
			<path class="st5" d="M9,32h32"/>
		</g>
		<circle cx="37.5" cy="16.5" r="3.5"/>
		<circle cx="12.5" cy="16.5" r="3.5"/>
	</g>
</g>
<g id="Capa_3" class="st0">
	<path class="st6" d="M45.8,21.8H11.9l8.2-8.2c1.3-1.3,1.3-3.3,0-4.5l0,0c-1.3-1.3-3.3-1.3-4.5,0L1.9,22.7c-1.3,1.3-1.3,3.3,0,4.5
		l13.6,13.6c1.3,1.3,3.3,1.3,4.5,0l0,0c1.3-1.3,1.3-3.3,0-4.5l-8.2-8.2h33.9c1.8,0,3.2-1.4,3.2-3.2v0C49,23.2,47.6,21.8,45.8,21.8z"
		/>
</g>
<g id="Capa_5" class="st0">
	<g class="st1">
		<g>
			<path class="st7" d="M10.6,24.7c0,7.9,6.5,14.4,14.4,14.4c7.8,0,14.1-6.2,14.4-14H25.4V10.3c-0.1,0-0.3,0-0.4,0
				C17.1,10.3,10.6,16.8,10.6,24.7z"/>
			<path class="st8" d="M25,39.1c-7.9,0-14.4-6.5-14.4-14.4S17.1,10.3,25,10.3c0.1,0,0.3,0,0.4,0V4.4c-0.1,0-0.3,0-0.4,0
				c-11.2,0-20.3,9.1-20.3,20.3C4.7,35.9,13.8,45,25,45c11.1,0,20.1-8.9,20.3-19.9h-5.9C39.1,32.9,32.8,39.1,25,39.1z"/>
		</g>
		<polygon class="st8" points="25,14.5 25,1 31.8,7.8 		"/>
	</g>
</g>
<g id="Capa_7">
</g>
<g id="Capa_6">
	<g>
		
			<linearGradient id="SVGID_1_" gradientUnits="userSpaceOnUse" x1="6.0331" y1="-1.612" x2="50.0895" y2="31.5868" gradientTransform="matrix(-0.7071 0.7071 -0.7071 -0.7071 60.3553 25)">
			<stop  offset="0.1965" style="stop-color:#FFFFFF;stop-opacity:0"/>
			<stop  offset="0.3606" style="stop-color:#A1ADC2;stop-opacity:0.3353"/>
			<stop  offset="0.5202" style="stop-color:#4B628B;stop-opacity:0.6613"/>
			<stop  offset="0.6318" style="stop-color:#163468;stop-opacity:0.8893"/>
			<stop  offset="0.686" style="stop-color:#02225B"/>
		</linearGradient>
		<path class="st9" d="M49,24h-4c0.3,5.4-1.7,11-5.8,15.1c-7.8,7.8-20.5,7.8-28.3,0C6.7,35,4.8,29.4,5,24H1c-0.3,6.5,2,13,7,18
			c9.4,9.4,24.6,9.4,33.9,0C46.9,37,49.2,30.5,49,24z"/>
		
			<linearGradient id="SVGID_2_" gradientUnits="userSpaceOnUse" x1="-8.2437" y1="17.334" x2="35.8126" y2="50.5328" gradientTransform="matrix(-0.7071 0.7071 -0.7071 -0.7071 60.3553 25)">
			<stop  offset="0.1965" style="stop-color:#FFFFFF"/>
			<stop  offset="0.3606" style="stop-color:#A1ADC2"/>
			<stop  offset="0.5202" style="stop-color:#4B628B"/>
			<stop  offset="0.6318" style="stop-color:#163468"/>
			<stop  offset="0.686" style="stop-color:#02225B"/>
		</linearGradient>
		<path class="st10" d="M10.9,10.9C14.8,7,19.9,5,25,5V1C18.9,1,12.7,3.3,8,8c-4.4,4.4-6.7,10.2-7,16h4C5.3,19.2,7.2,14.5,10.9,10.9
			z"/>
		
			<linearGradient id="SVGID_3_" gradientUnits="userSpaceOnUse" x1="-8.2437" y1="17.334" x2="35.8126" y2="50.5328" gradientTransform="matrix(-0.7071 0.7071 -0.7071 -0.7071 60.3553 25)">
			<stop  offset="0.1965" style="stop-color:#FFFFFF"/>
			<stop  offset="0.3606" style="stop-color:#A1ADC2"/>
			<stop  offset="0.5202" style="stop-color:#4B628B"/>
			<stop  offset="0.6318" style="stop-color:#163468"/>
			<stop  offset="0.686" style="stop-color:#02225B"/>
		</linearGradient>
		<path class="st11" d="M10.9,10.9C14.8,7,19.9,5,25,5V1C18.9,1,12.7,3.3,8,8c-4.4,4.4-6.7,10.2-7,16h4C5.3,19.2,7.2,14.5,10.9,10.9
			z"/>
		<path class="st12" d="M10.9,10.9C14.8,7,19.9,5,25,5V1C18.9,1,12.7,3.3,8,8c-4.4,4.4-6.7,10.2-7,16h4C5.3,19.2,7.2,14.5,10.9,10.9
			z"/>
		<path class="st12" d="M22.3,5.2C27.7,4.4,33,6,37.1,9.1l2.4-3.2c-4.9-3.7-11.2-5.6-17.8-4.7c-6.2,0.9-11.5,4-15.2,8.5l3.2,2.4
			C12.8,8.5,17.2,5.9,22.3,5.2z"/>
	</g>
</g>
</svg>
